<mxfile host="app.diagrams.net" modified="2021-07-23T10:33:48.527Z" agent="5.0 (Macintosh; Intel Mac OS X 10_15_7) AppleWebKit/537.36 (KHTML, like Gecko) Chrome/91.0.4472.164 Safari/537.36" etag="VR3GxosltzAOy8HdFbS4" version="14.9.0" type="github" pages="5">
  <diagram id="rkmyW1WvGG2G9KnQgsLw" name="torch-tensor">
    <mxGraphModel dx="2066" dy="1153" grid="1" gridSize="10" guides="1" tooltips="1" connect="1" arrows="1" fold="1" page="1" pageScale="1" pageWidth="827" pageHeight="1169" math="0" shadow="0">
      <root>
        <mxCell id="3fNZ-PsQ090tszZ4NCdx-0" />
        <mxCell id="3fNZ-PsQ090tszZ4NCdx-1" parent="3fNZ-PsQ090tszZ4NCdx-0" />
        <mxCell id="3fNZ-PsQ090tszZ4NCdx-6" value="TensorImpl" style="swimlane;fontStyle=0;childLayout=stackLayout;horizontal=1;startSize=26;fillColor=#d5e8d4;horizontalStack=0;resizeParent=1;resizeParentMax=0;resizeLast=0;collapsible=1;marginBottom=0;strokeColor=#82b366;sketch=1;" parent="3fNZ-PsQ090tszZ4NCdx-1" vertex="1">
          <mxGeometry x="340" y="240" width="330" height="102" as="geometry" />
        </mxCell>
        <mxCell id="3fNZ-PsQ090tszZ4NCdx-7" value="# Storage storage_" style="text;strokeColor=none;fillColor=none;align=left;verticalAlign=top;spacingLeft=4;spacingRight=4;overflow=hidden;rotatable=0;points=[[0,0.5],[1,0.5]];portConstraint=eastwest;sketch=1;" parent="3fNZ-PsQ090tszZ4NCdx-6" vertex="1">
          <mxGeometry y="26" width="330" height="24" as="geometry" />
        </mxCell>
        <mxCell id="3fNZ-PsQ090tszZ4NCdx-9" value="- std::unique_ptr&lt;AutogradMetaInterface&gt; autograd_meta_" style="text;strokeColor=none;fillColor=none;align=left;verticalAlign=top;spacingLeft=4;spacingRight=4;overflow=hidden;rotatable=0;points=[[0,0.5],[1,0.5]];portConstraint=eastwest;sketch=1;" parent="3fNZ-PsQ090tszZ4NCdx-6" vertex="1">
          <mxGeometry y="50" width="330" height="26" as="geometry" />
        </mxCell>
        <mxCell id="3fNZ-PsQ090tszZ4NCdx-10" value="- other members" style="text;strokeColor=none;fillColor=none;align=left;verticalAlign=top;spacingLeft=4;spacingRight=4;overflow=hidden;rotatable=0;points=[[0,0.5],[1,0.5]];portConstraint=eastwest;sketch=1;" parent="3fNZ-PsQ090tszZ4NCdx-6" vertex="1">
          <mxGeometry y="76" width="330" height="26" as="geometry" />
        </mxCell>
        <mxCell id="3fNZ-PsQ090tszZ4NCdx-11" value="Storage" style="swimlane;fontStyle=0;childLayout=stackLayout;horizontal=1;startSize=26;fillColor=#ffe6cc;horizontalStack=0;resizeParent=1;resizeParentMax=0;resizeLast=0;collapsible=1;marginBottom=0;strokeColor=#d79b00;sketch=1;" parent="3fNZ-PsQ090tszZ4NCdx-1" vertex="1">
          <mxGeometry x="180" y="441" width="280" height="52" as="geometry" />
        </mxCell>
        <mxCell id="3fNZ-PsQ090tszZ4NCdx-12" value="#c10::intrusive_ptr&lt;StorageImpl&gt; storage_impl_" style="text;strokeColor=none;fillColor=none;align=left;verticalAlign=top;spacingLeft=4;spacingRight=4;overflow=hidden;rotatable=0;points=[[0,0.5],[1,0.5]];portConstraint=eastwest;sketch=1;" parent="3fNZ-PsQ090tszZ4NCdx-11" vertex="1">
          <mxGeometry y="26" width="280" height="26" as="geometry" />
        </mxCell>
        <mxCell id="3fNZ-PsQ090tszZ4NCdx-13" value="StorageImpl" style="swimlane;fontStyle=0;childLayout=stackLayout;horizontal=1;startSize=26;fillColor=#ffe6cc;horizontalStack=0;resizeParent=1;resizeParentMax=0;resizeLast=0;collapsible=1;marginBottom=0;strokeColor=#d79b00;sketch=1;" parent="3fNZ-PsQ090tszZ4NCdx-1" vertex="1">
          <mxGeometry x="240" y="543" width="160" height="104" as="geometry" />
        </mxCell>
        <mxCell id="3fNZ-PsQ090tszZ4NCdx-14" value="- DataPtr data_ptr_" style="text;strokeColor=none;fillColor=none;align=left;verticalAlign=top;spacingLeft=4;spacingRight=4;overflow=hidden;rotatable=0;points=[[0,0.5],[1,0.5]];portConstraint=eastwest;sketch=1;" parent="3fNZ-PsQ090tszZ4NCdx-13" vertex="1">
          <mxGeometry y="26" width="160" height="26" as="geometry" />
        </mxCell>
        <mxCell id="3fNZ-PsQ090tszZ4NCdx-16" value="- size_t size_bytes_" style="text;strokeColor=none;fillColor=none;align=left;verticalAlign=top;spacingLeft=4;spacingRight=4;overflow=hidden;rotatable=0;points=[[0,0.5],[1,0.5]];portConstraint=eastwest;sketch=1;" parent="3fNZ-PsQ090tszZ4NCdx-13" vertex="1">
          <mxGeometry y="52" width="160" height="26" as="geometry" />
        </mxCell>
        <mxCell id="3fNZ-PsQ090tszZ4NCdx-17" value="- Allocator* allocator_" style="text;strokeColor=none;fillColor=none;align=left;verticalAlign=top;spacingLeft=4;spacingRight=4;overflow=hidden;rotatable=0;points=[[0,0.5],[1,0.5]];portConstraint=eastwest;sketch=1;" parent="3fNZ-PsQ090tszZ4NCdx-13" vertex="1">
          <mxGeometry y="78" width="160" height="26" as="geometry" />
        </mxCell>
        <mxCell id="ziE_FYRYKj2eNercVcnd-0" value="1" style="endArrow=open;html=1;endSize=12;startArrow=diamondThin;startSize=14;startFill=1;edgeStyle=orthogonalEdgeStyle;align=left;verticalAlign=bottom;entryX=0.5;entryY=0;entryDx=0;entryDy=0;exitX=0.5;exitY=1.034;exitDx=0;exitDy=0;exitPerimeter=0;" parent="3fNZ-PsQ090tszZ4NCdx-1" source="3fNZ-PsQ090tszZ4NCdx-12" target="3fNZ-PsQ090tszZ4NCdx-13" edge="1">
          <mxGeometry x="-0.3548" y="15" relative="1" as="geometry">
            <mxPoint x="320" y="500" as="sourcePoint" />
            <mxPoint x="315" y="721" as="targetPoint" />
            <mxPoint as="offset" />
          </mxGeometry>
        </mxCell>
        <mxCell id="ziE_FYRYKj2eNercVcnd-2" value="1" style="endArrow=open;html=1;endSize=12;startArrow=diamondThin;startSize=14;startFill=1;edgeStyle=orthogonalEdgeStyle;align=left;verticalAlign=bottom;exitX=0.5;exitY=1.038;exitDx=0;exitDy=0;exitPerimeter=0;" parent="3fNZ-PsQ090tszZ4NCdx-1" source="3fNZ-PsQ090tszZ4NCdx-10" target="3fNZ-PsQ090tszZ4NCdx-11" edge="1">
          <mxGeometry x="-1" y="3" relative="1" as="geometry">
            <mxPoint x="505" y="360" as="sourcePoint" />
            <mxPoint x="350" y="390" as="targetPoint" />
          </mxGeometry>
        </mxCell>
        <mxCell id="uop4ZLeQS_SM-GHOvkWw-0" value="aten::Tensor" style="swimlane;fontStyle=0;childLayout=stackLayout;horizontal=1;startSize=26;fillColor=#d5e8d4;horizontalStack=0;resizeParent=1;resizeParentMax=0;resizeLast=0;collapsible=1;marginBottom=0;strokeColor=#82b366;sketch=1;" parent="3fNZ-PsQ090tszZ4NCdx-1" vertex="1">
          <mxGeometry x="180" y="110" width="250" height="52" as="geometry" />
        </mxCell>
        <mxCell id="uop4ZLeQS_SM-GHOvkWw-1" value="# c10::intrusive_ptr&lt;TensorImpl, ...&gt; impl_" style="text;strokeColor=none;fillColor=none;align=left;verticalAlign=top;spacingLeft=4;spacingRight=4;overflow=hidden;rotatable=0;points=[[0,0.5],[1,0.5]];portConstraint=eastwest;sketch=1;" parent="uop4ZLeQS_SM-GHOvkWw-0" vertex="1">
          <mxGeometry y="26" width="250" height="26" as="geometry" />
        </mxCell>
        <mxCell id="uop4ZLeQS_SM-GHOvkWw-2" value="caffe2::Tensor" style="swimlane;fontStyle=0;childLayout=stackLayout;horizontal=1;startSize=26;fillColor=#d5e8d4;horizontalStack=0;resizeParent=1;resizeParentMax=0;resizeLast=0;collapsible=1;marginBottom=0;strokeColor=#82b366;sketch=1;" parent="3fNZ-PsQ090tszZ4NCdx-1" vertex="1">
          <mxGeometry x="580" y="110" width="250" height="52" as="geometry" />
        </mxCell>
        <mxCell id="uop4ZLeQS_SM-GHOvkWw-3" value="# c10::intrusive_ptr&lt;TensorImpl, ...&gt; impl_" style="text;strokeColor=none;fillColor=none;align=left;verticalAlign=top;spacingLeft=4;spacingRight=4;overflow=hidden;rotatable=0;points=[[0,0.5],[1,0.5]];portConstraint=eastwest;sketch=1;" parent="uop4ZLeQS_SM-GHOvkWw-2" vertex="1">
          <mxGeometry y="26" width="250" height="26" as="geometry" />
        </mxCell>
        <mxCell id="uop4ZLeQS_SM-GHOvkWw-4" value="1" style="endArrow=open;html=1;endSize=12;startArrow=diamondThin;startSize=14;startFill=1;edgeStyle=orthogonalEdgeStyle;align=left;verticalAlign=bottom;exitX=0.504;exitY=1;exitDx=0;exitDy=0;exitPerimeter=0;entryX=0.5;entryY=0;entryDx=0;entryDy=0;" parent="3fNZ-PsQ090tszZ4NCdx-1" source="uop4ZLeQS_SM-GHOvkWw-3" target="3fNZ-PsQ090tszZ4NCdx-6" edge="1">
          <mxGeometry x="-1" y="3" relative="1" as="geometry">
            <mxPoint x="380" y="510" as="sourcePoint" />
            <mxPoint x="520" y="250" as="targetPoint" />
          </mxGeometry>
        </mxCell>
        <mxCell id="uop4ZLeQS_SM-GHOvkWw-5" value="1" style="endArrow=open;html=1;endSize=12;startArrow=diamondThin;startSize=14;startFill=1;edgeStyle=orthogonalEdgeStyle;align=left;verticalAlign=bottom;exitX=0.46;exitY=1.038;exitDx=0;exitDy=0;exitPerimeter=0;entryX=0.5;entryY=0;entryDx=0;entryDy=0;" parent="3fNZ-PsQ090tszZ4NCdx-1" source="uop4ZLeQS_SM-GHOvkWw-1" target="3fNZ-PsQ090tszZ4NCdx-6" edge="1">
          <mxGeometry x="-1" y="3" relative="1" as="geometry">
            <mxPoint x="310" y="500" as="sourcePoint" />
            <mxPoint x="530" y="240" as="targetPoint" />
          </mxGeometry>
        </mxCell>
        <mxCell id="uop4ZLeQS_SM-GHOvkWw-16" value="SparseTensorImpl" style="swimlane;fontStyle=0;childLayout=stackLayout;horizontal=1;startSize=26;fillColor=#d5e8d4;horizontalStack=0;resizeParent=1;resizeParentMax=0;resizeLast=0;collapsible=1;marginBottom=0;strokeColor=#82b366;sketch=1;" parent="3fNZ-PsQ090tszZ4NCdx-1" vertex="1">
          <mxGeometry x="500" y="441" width="180" height="74" as="geometry" />
        </mxCell>
        <mxCell id="uop4ZLeQS_SM-GHOvkWw-17" value="- Tensor indices_" style="text;strokeColor=none;fillColor=none;align=left;verticalAlign=top;spacingLeft=4;spacingRight=4;overflow=hidden;rotatable=0;points=[[0,0.5],[1,0.5]];portConstraint=eastwest;sketch=1;" parent="uop4ZLeQS_SM-GHOvkWw-16" vertex="1">
          <mxGeometry y="26" width="180" height="24" as="geometry" />
        </mxCell>
        <mxCell id="uop4ZLeQS_SM-GHOvkWw-20" value="- Tensor values_" style="text;strokeColor=none;fillColor=none;align=left;verticalAlign=top;spacingLeft=4;spacingRight=4;overflow=hidden;rotatable=0;points=[[0,0.5],[1,0.5]];portConstraint=eastwest;sketch=1;" parent="uop4ZLeQS_SM-GHOvkWw-16" vertex="1">
          <mxGeometry y="50" width="180" height="24" as="geometry" />
        </mxCell>
        <mxCell id="uop4ZLeQS_SM-GHOvkWw-21" value="SparseCsrTensorImpl" style="swimlane;fontStyle=0;childLayout=stackLayout;horizontal=1;startSize=26;fillColor=#d5e8d4;horizontalStack=0;resizeParent=1;resizeParentMax=0;resizeLast=0;collapsible=1;marginBottom=0;strokeColor=#82b366;sketch=1;" parent="3fNZ-PsQ090tszZ4NCdx-1" vertex="1">
          <mxGeometry x="720" y="440" width="180" height="98" as="geometry" />
        </mxCell>
        <mxCell id="uop4ZLeQS_SM-GHOvkWw-22" value="- Tensor crow_indices_" style="text;strokeColor=none;fillColor=none;align=left;verticalAlign=top;spacingLeft=4;spacingRight=4;overflow=hidden;rotatable=0;points=[[0,0.5],[1,0.5]];portConstraint=eastwest;sketch=1;" parent="uop4ZLeQS_SM-GHOvkWw-21" vertex="1">
          <mxGeometry y="26" width="180" height="24" as="geometry" />
        </mxCell>
        <mxCell id="uop4ZLeQS_SM-GHOvkWw-24" value="- Tensor col_indices_" style="text;strokeColor=none;fillColor=none;align=left;verticalAlign=top;spacingLeft=4;spacingRight=4;overflow=hidden;rotatable=0;points=[[0,0.5],[1,0.5]];portConstraint=eastwest;sketch=1;" parent="uop4ZLeQS_SM-GHOvkWw-21" vertex="1">
          <mxGeometry y="50" width="180" height="24" as="geometry" />
        </mxCell>
        <mxCell id="uop4ZLeQS_SM-GHOvkWw-23" value="- Tensor values_" style="text;strokeColor=none;fillColor=none;align=left;verticalAlign=top;spacingLeft=4;spacingRight=4;overflow=hidden;rotatable=0;points=[[0,0.5],[1,0.5]];portConstraint=eastwest;sketch=1;" parent="uop4ZLeQS_SM-GHOvkWw-21" vertex="1">
          <mxGeometry y="74" width="180" height="24" as="geometry" />
        </mxCell>
        <mxCell id="uop4ZLeQS_SM-GHOvkWw-25" value="OpaqueTensorImpl&lt;OpaqueHandle&gt;" style="swimlane;fontStyle=1;childLayout=stackLayout;horizontal=1;startSize=26;fillColor=#f8cecc;horizontalStack=0;resizeParent=1;resizeParentMax=0;resizeLast=0;collapsible=1;marginBottom=0;strokeColor=#b85450;sketch=1;" parent="3fNZ-PsQ090tszZ4NCdx-1" vertex="1">
          <mxGeometry x="955" y="441" width="290" height="50" as="geometry" />
        </mxCell>
        <mxCell id="uop4ZLeQS_SM-GHOvkWw-26" value="- OpaqueHandle opaque_handle_" style="text;strokeColor=none;fillColor=none;align=left;verticalAlign=top;spacingLeft=4;spacingRight=4;overflow=hidden;rotatable=0;points=[[0,0.5],[1,0.5]];portConstraint=eastwest;sketch=1;" parent="uop4ZLeQS_SM-GHOvkWw-25" vertex="1">
          <mxGeometry y="26" width="290" height="24" as="geometry" />
        </mxCell>
        <mxCell id="uop4ZLeQS_SM-GHOvkWw-28" value="" style="endArrow=block;endSize=16;endFill=0;html=1;fontSize=16;exitX=0.5;exitY=0;exitDx=0;exitDy=0;entryX=1.005;entryY=0.744;entryDx=0;entryDy=0;entryPerimeter=0;" parent="3fNZ-PsQ090tszZ4NCdx-1" target="3fNZ-PsQ090tszZ4NCdx-7" edge="1">
          <mxGeometry x="1" y="-264" width="160" relative="1" as="geometry">
            <mxPoint x="595" y="440" as="sourcePoint" />
            <mxPoint x="676" y="283" as="targetPoint" />
            <Array as="points">
              <mxPoint x="595" y="380" />
              <mxPoint x="810" y="380" />
              <mxPoint x="810" y="284" />
            </Array>
            <mxPoint x="16" y="-38" as="offset" />
          </mxGeometry>
        </mxCell>
        <mxCell id="uop4ZLeQS_SM-GHOvkWw-29" value="" style="endArrow=block;endSize=16;endFill=0;html=1;fontSize=16;exitX=0.5;exitY=0;exitDx=0;exitDy=0;" parent="3fNZ-PsQ090tszZ4NCdx-1" source="uop4ZLeQS_SM-GHOvkWw-21" edge="1">
          <mxGeometry x="-0.5544" y="-68" width="160" relative="1" as="geometry">
            <mxPoint x="830" y="310" as="sourcePoint" />
            <mxPoint x="671" y="284" as="targetPoint" />
            <Array as="points">
              <mxPoint x="810" y="284" />
            </Array>
            <mxPoint as="offset" />
          </mxGeometry>
        </mxCell>
        <mxCell id="uop4ZLeQS_SM-GHOvkWw-30" value="" style="endArrow=block;endSize=16;endFill=0;html=1;fontSize=16;exitX=0.5;exitY=0;exitDx=0;exitDy=0;" parent="3fNZ-PsQ090tszZ4NCdx-1" edge="1">
          <mxGeometry x="-0.5544" y="-68" width="160" relative="1" as="geometry">
            <mxPoint x="810" y="440" as="sourcePoint" />
            <mxPoint x="671" y="284" as="targetPoint" />
            <Array as="points">
              <mxPoint x="810" y="284" />
            </Array>
            <mxPoint as="offset" />
          </mxGeometry>
        </mxCell>
        <mxCell id="uop4ZLeQS_SM-GHOvkWw-31" value="" style="endArrow=block;endSize=16;endFill=0;html=1;fontSize=16;exitX=0.5;exitY=0;exitDx=0;exitDy=0;" parent="3fNZ-PsQ090tszZ4NCdx-1" source="uop4ZLeQS_SM-GHOvkWw-25" edge="1">
          <mxGeometry x="-0.5544" y="-68" width="160" relative="1" as="geometry">
            <mxPoint x="859" y="440" as="sourcePoint" />
            <mxPoint x="670" y="284" as="targetPoint" />
            <Array as="points">
              <mxPoint x="1100" y="380" />
              <mxPoint x="810" y="380" />
              <mxPoint x="810" y="284" />
            </Array>
            <mxPoint as="offset" />
          </mxGeometry>
        </mxCell>
        <mxCell id="uop4ZLeQS_SM-GHOvkWw-32" value="" style="endArrow=block;dashed=1;endFill=0;endSize=12;html=1;fontSize=16;exitX=0.5;exitY=0;exitDx=0;exitDy=0;" parent="3fNZ-PsQ090tszZ4NCdx-1" source="uop4ZLeQS_SM-GHOvkWw-36" edge="1">
          <mxGeometry width="160" relative="1" as="geometry">
            <mxPoint x="880" y="590" as="sourcePoint" />
            <mxPoint x="1100" y="493" as="targetPoint" />
            <Array as="points">
              <mxPoint x="825" y="550" />
              <mxPoint x="1100" y="550" />
            </Array>
          </mxGeometry>
        </mxCell>
        <mxCell id="uop4ZLeQS_SM-GHOvkWw-36" value="MKLDNNTensorImpl&#xa;= OpaqueTensorImpl&lt;IDeepTensorWrapperPtr&gt;" style="swimlane;fontStyle=1;childLayout=stackLayout;horizontal=1;startSize=70;fillColor=#f8cecc;horizontalStack=0;resizeParent=1;resizeParentMax=0;resizeLast=0;collapsible=1;marginBottom=0;strokeColor=#b85450;sketch=1;" parent="3fNZ-PsQ090tszZ4NCdx-1" vertex="1">
          <mxGeometry x="680" y="585" width="290" height="50" as="geometry" />
        </mxCell>
        <mxCell id="uop4ZLeQS_SM-GHOvkWw-38" value="1" style="endArrow=open;html=1;endSize=12;startArrow=diamondThin;startSize=14;startFill=1;edgeStyle=orthogonalEdgeStyle;align=left;verticalAlign=bottom;fontSize=16;exitX=0.5;exitY=1;exitDx=0;exitDy=0;entryX=0.5;entryY=0;entryDx=0;entryDy=0;" parent="3fNZ-PsQ090tszZ4NCdx-1" source="uop4ZLeQS_SM-GHOvkWw-36" target="uop4ZLeQS_SM-GHOvkWw-39" edge="1">
          <mxGeometry y="15" relative="1" as="geometry">
            <mxPoint x="690" y="735" as="sourcePoint" />
            <mxPoint x="825" y="685" as="targetPoint" />
            <mxPoint as="offset" />
          </mxGeometry>
        </mxCell>
        <mxCell id="uop4ZLeQS_SM-GHOvkWw-39" value="ideep::tensor" style="swimlane;fontStyle=1;childLayout=stackLayout;horizontal=1;startSize=70;fillColor=#dae8fc;horizontalStack=0;resizeParent=1;resizeParentMax=0;resizeLast=0;collapsible=1;marginBottom=0;strokeColor=#6c8ebf;sketch=1;" parent="3fNZ-PsQ090tszZ4NCdx-1" vertex="1">
          <mxGeometry x="745" y="685" width="160" height="40" as="geometry" />
        </mxCell>
        <mxCell id="uop4ZLeQS_SM-GHOvkWw-40" value="MetalTensorImpl" style="swimlane;fontStyle=1;childLayout=stackLayout;horizontal=1;startSize=26;fillColor=#f8cecc;horizontalStack=0;resizeParent=1;resizeParentMax=0;resizeLast=0;collapsible=1;marginBottom=0;strokeColor=#b85450;sketch=1;" parent="3fNZ-PsQ090tszZ4NCdx-1" vertex="1">
          <mxGeometry x="990" y="585" width="220" height="50" as="geometry" />
        </mxCell>
        <mxCell id="uop4ZLeQS_SM-GHOvkWw-41" value="- SmallVector&lt;int64_t, 5&gt; strides_" style="text;strokeColor=none;fillColor=none;align=left;verticalAlign=top;spacingLeft=4;spacingRight=4;overflow=hidden;rotatable=0;points=[[0,0.5],[1,0.5]];portConstraint=eastwest;sketch=1;" parent="uop4ZLeQS_SM-GHOvkWw-40" vertex="1">
          <mxGeometry y="26" width="220" height="24" as="geometry" />
        </mxCell>
        <mxCell id="uop4ZLeQS_SM-GHOvkWw-42" value="VulkanOpaqueTensorImpl" style="swimlane;fontStyle=1;childLayout=stackLayout;horizontal=1;startSize=26;fillColor=#f8cecc;horizontalStack=0;resizeParent=1;resizeParentMax=0;resizeLast=0;collapsible=1;marginBottom=0;strokeColor=#b85450;sketch=1;" parent="3fNZ-PsQ090tszZ4NCdx-1" vertex="1">
          <mxGeometry x="1230" y="585" width="220" height="50" as="geometry" />
        </mxCell>
        <mxCell id="uop4ZLeQS_SM-GHOvkWw-43" value="- SmallVector&lt;int64_t, 5&gt; strides_" style="text;strokeColor=none;fillColor=none;align=left;verticalAlign=top;spacingLeft=4;spacingRight=4;overflow=hidden;rotatable=0;points=[[0,0.5],[1,0.5]];portConstraint=eastwest;sketch=1;" parent="uop4ZLeQS_SM-GHOvkWw-42" vertex="1">
          <mxGeometry y="26" width="220" height="24" as="geometry" />
        </mxCell>
        <mxCell id="uop4ZLeQS_SM-GHOvkWw-45" value="MetalTensorImplStorage" style="swimlane;fontStyle=1;childLayout=stackLayout;horizontal=1;startSize=26;fillColor=#f8cecc;horizontalStack=0;resizeParent=1;resizeParentMax=0;resizeLast=0;collapsible=1;marginBottom=0;strokeColor=#b85450;sketch=1;" parent="3fNZ-PsQ090tszZ4NCdx-1" vertex="1">
          <mxGeometry x="989" y="680" width="220" height="50" as="geometry" />
        </mxCell>
        <mxCell id="uop4ZLeQS_SM-GHOvkWw-46" value="- std::shared_ptr&lt;Impl&gt; _impl;" style="text;strokeColor=none;fillColor=none;align=left;verticalAlign=top;spacingLeft=4;spacingRight=4;overflow=hidden;rotatable=0;points=[[0,0.5],[1,0.5]];portConstraint=eastwest;sketch=1;" parent="uop4ZLeQS_SM-GHOvkWw-45" vertex="1">
          <mxGeometry y="26" width="220" height="24" as="geometry" />
        </mxCell>
        <mxCell id="uop4ZLeQS_SM-GHOvkWw-47" value="VulkanTensor" style="swimlane;fontStyle=1;childLayout=stackLayout;horizontal=1;startSize=26;fillColor=#f8cecc;horizontalStack=0;resizeParent=1;resizeParentMax=0;resizeLast=0;collapsible=1;marginBottom=0;strokeColor=#b85450;sketch=1;" parent="3fNZ-PsQ090tszZ4NCdx-1" vertex="1">
          <mxGeometry x="1230" y="680" width="220" height="122" as="geometry" />
        </mxCell>
        <mxCell id="uop4ZLeQS_SM-GHOvkWw-48" value="- VkInstance instance_" style="text;strokeColor=none;fillColor=none;align=left;verticalAlign=top;spacingLeft=4;spacingRight=4;overflow=hidden;rotatable=0;points=[[0,0.5],[1,0.5]];portConstraint=eastwest;sketch=1;" parent="uop4ZLeQS_SM-GHOvkWw-47" vertex="1">
          <mxGeometry y="26" width="220" height="24" as="geometry" />
        </mxCell>
        <mxCell id="uop4ZLeQS_SM-GHOvkWw-49" value="- VkDevice device_" style="text;strokeColor=none;fillColor=none;align=left;verticalAlign=top;spacingLeft=4;spacingRight=4;overflow=hidden;rotatable=0;points=[[0,0.5],[1,0.5]];portConstraint=eastwest;sketch=1;" parent="uop4ZLeQS_SM-GHOvkWw-47" vertex="1">
          <mxGeometry y="50" width="220" height="24" as="geometry" />
        </mxCell>
        <mxCell id="uop4ZLeQS_SM-GHOvkWw-50" value="- VkCommandPool commandPool_" style="text;strokeColor=none;fillColor=none;align=left;verticalAlign=top;spacingLeft=4;spacingRight=4;overflow=hidden;rotatable=0;points=[[0,0.5],[1,0.5]];portConstraint=eastwest;sketch=1;" parent="uop4ZLeQS_SM-GHOvkWw-47" vertex="1">
          <mxGeometry y="74" width="220" height="24" as="geometry" />
        </mxCell>
        <mxCell id="uop4ZLeQS_SM-GHOvkWw-51" value="- ..." style="text;strokeColor=none;fillColor=none;align=left;verticalAlign=top;spacingLeft=4;spacingRight=4;overflow=hidden;rotatable=0;points=[[0,0.5],[1,0.5]];portConstraint=eastwest;sketch=1;" parent="uop4ZLeQS_SM-GHOvkWw-47" vertex="1">
          <mxGeometry y="98" width="220" height="24" as="geometry" />
        </mxCell>
        <mxCell id="uop4ZLeQS_SM-GHOvkWw-53" value="" style="endArrow=block;endSize=16;endFill=0;html=1;fontSize=16;entryX=0.5;entryY=1.042;entryDx=0;entryDy=0;entryPerimeter=0;exitX=0.5;exitY=0;exitDx=0;exitDy=0;" parent="3fNZ-PsQ090tszZ4NCdx-1" source="uop4ZLeQS_SM-GHOvkWw-40" target="uop4ZLeQS_SM-GHOvkWw-26" edge="1">
          <mxGeometry x="-0.0322" y="-20" width="160" relative="1" as="geometry">
            <mxPoint x="900" y="620" as="sourcePoint" />
            <mxPoint x="1060" y="620" as="targetPoint" />
            <mxPoint as="offset" />
          </mxGeometry>
        </mxCell>
        <mxCell id="uop4ZLeQS_SM-GHOvkWw-54" value="" style="endArrow=block;endSize=16;endFill=0;html=1;fontSize=16;entryX=0.5;entryY=0.958;entryDx=0;entryDy=0;entryPerimeter=0;exitX=0.5;exitY=0;exitDx=0;exitDy=0;" parent="3fNZ-PsQ090tszZ4NCdx-1" source="uop4ZLeQS_SM-GHOvkWw-42" target="uop4ZLeQS_SM-GHOvkWw-26" edge="1">
          <mxGeometry x="-0.0322" y="-20" width="160" relative="1" as="geometry">
            <mxPoint x="1110" y="595" as="sourcePoint" />
            <mxPoint x="1110" y="502.00800000000004" as="targetPoint" />
            <mxPoint as="offset" />
            <Array as="points">
              <mxPoint x="1340" y="550" />
              <mxPoint x="1100" y="550" />
            </Array>
          </mxGeometry>
        </mxCell>
        <mxCell id="uop4ZLeQS_SM-GHOvkWw-55" value="1" style="endArrow=open;html=1;endSize=12;startArrow=diamondThin;startSize=14;startFill=1;edgeStyle=orthogonalEdgeStyle;align=left;verticalAlign=bottom;fontSize=16;entryX=0.5;entryY=0;entryDx=0;entryDy=0;exitX=0.496;exitY=0.995;exitDx=0;exitDy=0;exitPerimeter=0;" parent="3fNZ-PsQ090tszZ4NCdx-1" source="uop4ZLeQS_SM-GHOvkWw-41" target="uop4ZLeQS_SM-GHOvkWw-45" edge="1">
          <mxGeometry y="15" relative="1" as="geometry">
            <mxPoint x="1100" y="640" as="sourcePoint" />
            <mxPoint x="835" y="695" as="targetPoint" />
            <mxPoint as="offset" />
          </mxGeometry>
        </mxCell>
        <mxCell id="uop4ZLeQS_SM-GHOvkWw-58" value="1" style="endArrow=open;html=1;endSize=12;startArrow=diamondThin;startSize=14;startFill=1;edgeStyle=orthogonalEdgeStyle;align=left;verticalAlign=bottom;fontSize=16;exitX=0.499;exitY=1.019;exitDx=0;exitDy=0;exitPerimeter=0;" parent="3fNZ-PsQ090tszZ4NCdx-1" source="uop4ZLeQS_SM-GHOvkWw-43" target="uop4ZLeQS_SM-GHOvkWw-47" edge="1">
          <mxGeometry y="15" relative="1" as="geometry">
            <mxPoint x="1340" y="650" as="sourcePoint" />
            <mxPoint x="835" y="695" as="targetPoint" />
            <mxPoint as="offset" />
          </mxGeometry>
        </mxCell>
      </root>
    </mxGraphModel>
  </diagram>
  <diagram id="t_aBljZlN9d7UNasqOFk" name="design-v0">
    <mxGraphModel dx="2066" dy="1153" grid="1" gridSize="10" guides="1" tooltips="1" connect="1" arrows="1" fold="1" page="1" pageScale="1" pageWidth="827" pageHeight="1169" math="0" shadow="0">
      <root>
        <mxCell id="iBEAWXsy8XB5qBdqJZX1-0" />
        <mxCell id="iBEAWXsy8XB5qBdqJZX1-1" parent="iBEAWXsy8XB5qBdqJZX1-0" />
        <mxCell id="iBEAWXsy8XB5qBdqJZX1-2" value="TensorImpl" style="swimlane;fontStyle=0;childLayout=stackLayout;horizontal=1;startSize=26;fillColor=#d5e8d4;horizontalStack=0;resizeParent=1;resizeParentMax=0;resizeLast=0;collapsible=1;marginBottom=0;strokeColor=#82b366;sketch=1;" parent="iBEAWXsy8XB5qBdqJZX1-1" vertex="1">
          <mxGeometry x="340" y="240" width="330" height="102" as="geometry" />
        </mxCell>
        <mxCell id="iBEAWXsy8XB5qBdqJZX1-3" value="- std::shared_ptr&lt;Allocation&gt; holder_;" style="text;strokeColor=none;fillColor=none;align=left;verticalAlign=top;spacingLeft=4;spacingRight=4;overflow=hidden;rotatable=0;points=[[0,0.5],[1,0.5]];portConstraint=eastwest;sketch=1;" parent="iBEAWXsy8XB5qBdqJZX1-2" vertex="1">
          <mxGeometry y="26" width="330" height="24" as="geometry" />
        </mxCell>
        <mxCell id="iBEAWXsy8XB5qBdqJZX1-4" value="- std::unique_ptr&lt;AutogradMetaInterface&gt; autograd_meta_" style="text;strokeColor=none;fillColor=none;align=left;verticalAlign=top;spacingLeft=4;spacingRight=4;overflow=hidden;rotatable=0;points=[[0,0.5],[1,0.5]];portConstraint=eastwest;sketch=1;" parent="iBEAWXsy8XB5qBdqJZX1-2" vertex="1">
          <mxGeometry y="50" width="330" height="26" as="geometry" />
        </mxCell>
        <mxCell id="iBEAWXsy8XB5qBdqJZX1-5" value="- other members" style="text;strokeColor=none;fillColor=none;align=left;verticalAlign=top;spacingLeft=4;spacingRight=4;overflow=hidden;rotatable=0;points=[[0,0.5],[1,0.5]];portConstraint=eastwest;sketch=1;" parent="iBEAWXsy8XB5qBdqJZX1-2" vertex="1">
          <mxGeometry y="76" width="330" height="26" as="geometry" />
        </mxCell>
        <mxCell id="iBEAWXsy8XB5qBdqJZX1-8" value="Allocation" style="swimlane;fontStyle=0;childLayout=stackLayout;horizontal=1;startSize=26;fillColor=#ffe6cc;horizontalStack=0;resizeParent=1;resizeParentMax=0;resizeLast=0;collapsible=1;marginBottom=0;strokeColor=#d79b00;sketch=1;" parent="iBEAWXsy8XB5qBdqJZX1-1" vertex="1">
          <mxGeometry x="115" y="426" width="150" height="104" as="geometry" />
        </mxCell>
        <mxCell id="iBEAWXsy8XB5qBdqJZX1-9" value="- void* ptr_" style="text;strokeColor=none;fillColor=none;align=left;verticalAlign=top;spacingLeft=4;spacingRight=4;overflow=hidden;rotatable=0;points=[[0,0.5],[1,0.5]];portConstraint=eastwest;sketch=1;" parent="iBEAWXsy8XB5qBdqJZX1-8" vertex="1">
          <mxGeometry y="26" width="150" height="26" as="geometry" />
        </mxCell>
        <mxCell id="iBEAWXsy8XB5qBdqJZX1-10" value="- size_t size_" style="text;strokeColor=none;fillColor=none;align=left;verticalAlign=top;spacingLeft=4;spacingRight=4;overflow=hidden;rotatable=0;points=[[0,0.5],[1,0.5]];portConstraint=eastwest;sketch=1;" parent="iBEAWXsy8XB5qBdqJZX1-8" vertex="1">
          <mxGeometry y="52" width="150" height="26" as="geometry" />
        </mxCell>
        <mxCell id="iBEAWXsy8XB5qBdqJZX1-11" value="- Place place_" style="text;strokeColor=none;fillColor=none;align=left;verticalAlign=top;spacingLeft=4;spacingRight=4;overflow=hidden;rotatable=0;points=[[0,0.5],[1,0.5]];portConstraint=eastwest;sketch=1;" parent="iBEAWXsy8XB5qBdqJZX1-8" vertex="1">
          <mxGeometry y="78" width="150" height="26" as="geometry" />
        </mxCell>
        <mxCell id="iBEAWXsy8XB5qBdqJZX1-13" value="1" style="endArrow=open;html=1;endSize=12;startArrow=diamondThin;startSize=14;startFill=1;edgeStyle=orthogonalEdgeStyle;align=left;verticalAlign=bottom;exitX=0.5;exitY=1.038;exitDx=0;exitDy=0;exitPerimeter=0;entryX=0.5;entryY=0;entryDx=0;entryDy=0;" parent="iBEAWXsy8XB5qBdqJZX1-1" source="iBEAWXsy8XB5qBdqJZX1-5" target="iBEAWXsy8XB5qBdqJZX1-8" edge="1">
          <mxGeometry x="-0.8084" y="15" relative="1" as="geometry">
            <mxPoint x="505" y="360" as="sourcePoint" />
            <mxPoint x="320" y="420" as="targetPoint" />
            <Array as="points">
              <mxPoint x="505" y="380" />
              <mxPoint x="190" y="380" />
            </Array>
            <mxPoint as="offset" />
          </mxGeometry>
        </mxCell>
        <mxCell id="iBEAWXsy8XB5qBdqJZX1-14" value="paddle::Tensor" style="swimlane;fontStyle=0;childLayout=stackLayout;horizontal=1;startSize=26;fillColor=#d5e8d4;horizontalStack=0;resizeParent=1;resizeParentMax=0;resizeLast=0;collapsible=1;marginBottom=0;strokeColor=#82b366;sketch=1;" parent="iBEAWXsy8XB5qBdqJZX1-1" vertex="1">
          <mxGeometry x="390" y="130" width="250" height="52" as="geometry" />
        </mxCell>
        <mxCell id="iBEAWXsy8XB5qBdqJZX1-15" value="# std::shared_ptr&lt;TensorImpl&gt; impl_" style="text;strokeColor=none;fillColor=none;align=left;verticalAlign=top;spacingLeft=4;spacingRight=4;overflow=hidden;rotatable=0;points=[[0,0.5],[1,0.5]];portConstraint=eastwest;sketch=1;" parent="iBEAWXsy8XB5qBdqJZX1-14" vertex="1">
          <mxGeometry y="26" width="250" height="26" as="geometry" />
        </mxCell>
        <mxCell id="iBEAWXsy8XB5qBdqJZX1-19" value="1" style="endArrow=open;html=1;endSize=12;startArrow=diamondThin;startSize=14;startFill=1;edgeStyle=orthogonalEdgeStyle;align=left;verticalAlign=bottom;exitX=0.46;exitY=1.038;exitDx=0;exitDy=0;exitPerimeter=0;entryX=0.5;entryY=0;entryDx=0;entryDy=0;" parent="iBEAWXsy8XB5qBdqJZX1-1" source="iBEAWXsy8XB5qBdqJZX1-15" target="iBEAWXsy8XB5qBdqJZX1-2" edge="1">
          <mxGeometry x="-0.0524" y="15" relative="1" as="geometry">
            <mxPoint x="310" y="500" as="sourcePoint" />
            <mxPoint x="530" y="240" as="targetPoint" />
            <mxPoint as="offset" />
          </mxGeometry>
        </mxCell>
        <mxCell id="iBEAWXsy8XB5qBdqJZX1-20" value="LoDTensorImpl" style="swimlane;fontStyle=0;childLayout=stackLayout;horizontal=1;startSize=26;fillColor=#d5e8d4;horizontalStack=0;resizeParent=1;resizeParentMax=0;resizeLast=0;collapsible=1;marginBottom=0;strokeColor=#82b366;sketch=1;" parent="iBEAWXsy8XB5qBdqJZX1-1" vertex="1">
          <mxGeometry x="320" y="480" width="140" height="50" as="geometry" />
        </mxCell>
        <mxCell id="iBEAWXsy8XB5qBdqJZX1-21" value="- LoD lod_" style="text;strokeColor=none;fillColor=none;align=left;verticalAlign=top;spacingLeft=4;spacingRight=4;overflow=hidden;rotatable=0;points=[[0,0.5],[1,0.5]];portConstraint=eastwest;sketch=1;" parent="iBEAWXsy8XB5qBdqJZX1-20" vertex="1">
          <mxGeometry y="26" width="140" height="24" as="geometry" />
        </mxCell>
        <mxCell id="iBEAWXsy8XB5qBdqJZX1-23" value="SelectedRowsImpl" style="swimlane;fontStyle=0;childLayout=stackLayout;horizontal=1;startSize=26;fillColor=#d5e8d4;horizontalStack=0;resizeParent=1;resizeParentMax=0;resizeLast=0;collapsible=1;marginBottom=0;strokeColor=#82b366;sketch=1;" parent="iBEAWXsy8XB5qBdqJZX1-1" vertex="1">
          <mxGeometry x="510" y="480" width="190" height="74" as="geometry" />
        </mxCell>
        <mxCell id="iBEAWXsy8XB5qBdqJZX1-24" value="- Vector&lt;int64_t&gt; rows_" style="text;strokeColor=none;fillColor=none;align=left;verticalAlign=top;spacingLeft=4;spacingRight=4;overflow=hidden;rotatable=0;points=[[0,0.5],[1,0.5]];portConstraint=eastwest;sketch=1;" parent="iBEAWXsy8XB5qBdqJZX1-23" vertex="1">
          <mxGeometry y="26" width="190" height="24" as="geometry" />
        </mxCell>
        <mxCell id="iBEAWXsy8XB5qBdqJZX1-25" value="- int64_t height_" style="text;strokeColor=none;fillColor=none;align=left;verticalAlign=top;spacingLeft=4;spacingRight=4;overflow=hidden;rotatable=0;points=[[0,0.5],[1,0.5]];portConstraint=eastwest;sketch=1;" parent="iBEAWXsy8XB5qBdqJZX1-23" vertex="1">
          <mxGeometry y="50" width="190" height="24" as="geometry" />
        </mxCell>
        <mxCell id="iBEAWXsy8XB5qBdqJZX1-27" value="CustomTensorImpl&lt;AllocationHandle&gt;" style="swimlane;fontStyle=1;childLayout=stackLayout;horizontal=1;startSize=26;fillColor=#f8cecc;horizontalStack=0;resizeParent=1;resizeParentMax=0;resizeLast=0;collapsible=1;marginBottom=0;strokeColor=#b85450;sketch=1;" parent="iBEAWXsy8XB5qBdqJZX1-1" vertex="1">
          <mxGeometry x="970" y="480" width="290" height="50" as="geometry" />
        </mxCell>
        <mxCell id="iBEAWXsy8XB5qBdqJZX1-28" value="- AllocationHandle allocation_handle_" style="text;strokeColor=none;fillColor=none;align=left;verticalAlign=top;spacingLeft=4;spacingRight=4;overflow=hidden;rotatable=0;points=[[0,0.5],[1,0.5]];portConstraint=eastwest;sketch=1;" parent="iBEAWXsy8XB5qBdqJZX1-27" vertex="1">
          <mxGeometry y="26" width="290" height="24" as="geometry" />
        </mxCell>
        <mxCell id="iBEAWXsy8XB5qBdqJZX1-29" value="" style="endArrow=block;endSize=16;endFill=0;html=1;fontSize=16;entryX=1.005;entryY=0.744;entryDx=0;entryDy=0;entryPerimeter=0;exitX=0.5;exitY=0;exitDx=0;exitDy=0;" parent="iBEAWXsy8XB5qBdqJZX1-1" source="iBEAWXsy8XB5qBdqJZX1-20" target="iBEAWXsy8XB5qBdqJZX1-3" edge="1">
          <mxGeometry x="1" y="-264" width="160" relative="1" as="geometry">
            <mxPoint x="595" y="440" as="sourcePoint" />
            <mxPoint x="676" y="283" as="targetPoint" />
            <Array as="points">
              <mxPoint x="390" y="430" />
              <mxPoint x="810" y="430" />
              <mxPoint x="810" y="284" />
            </Array>
            <mxPoint x="16" y="-38" as="offset" />
          </mxGeometry>
        </mxCell>
        <mxCell id="iBEAWXsy8XB5qBdqJZX1-31" value="" style="endArrow=block;endSize=16;endFill=0;html=1;fontSize=16;exitX=0.5;exitY=0;exitDx=0;exitDy=0;" parent="iBEAWXsy8XB5qBdqJZX1-1" source="iBEAWXsy8XB5qBdqJZX1-23" edge="1">
          <mxGeometry x="-0.5544" y="-68" width="160" relative="1" as="geometry">
            <mxPoint x="810" y="440" as="sourcePoint" />
            <mxPoint x="671" y="284" as="targetPoint" />
            <Array as="points">
              <mxPoint x="605" y="430" />
              <mxPoint x="810" y="430" />
              <mxPoint x="810" y="284" />
            </Array>
            <mxPoint as="offset" />
          </mxGeometry>
        </mxCell>
        <mxCell id="iBEAWXsy8XB5qBdqJZX1-32" value="" style="endArrow=block;endSize=16;endFill=0;html=1;fontSize=16;exitX=0.5;exitY=0;exitDx=0;exitDy=0;" parent="iBEAWXsy8XB5qBdqJZX1-1" source="iBEAWXsy8XB5qBdqJZX1-27" edge="1">
          <mxGeometry x="-0.5544" y="-68" width="160" relative="1" as="geometry">
            <mxPoint x="859" y="440" as="sourcePoint" />
            <mxPoint x="670" y="284" as="targetPoint" />
            <Array as="points">
              <mxPoint x="1115" y="430" />
              <mxPoint x="810" y="430" />
              <mxPoint x="810" y="284" />
            </Array>
            <mxPoint as="offset" />
          </mxGeometry>
        </mxCell>
        <mxCell id="iBEAWXsy8XB5qBdqJZX1-37" value="MetalTensorImpl" style="swimlane;fontStyle=1;childLayout=stackLayout;horizontal=1;startSize=26;fillColor=#f8cecc;horizontalStack=0;resizeParent=1;resizeParentMax=0;resizeLast=0;collapsible=1;marginBottom=0;strokeColor=#b85450;sketch=1;" parent="iBEAWXsy8XB5qBdqJZX1-1" vertex="1">
          <mxGeometry x="871" y="625" width="220" height="50" as="geometry" />
        </mxCell>
        <mxCell id="iBEAWXsy8XB5qBdqJZX1-38" value="- ..." style="text;strokeColor=none;fillColor=none;align=left;verticalAlign=top;spacingLeft=4;spacingRight=4;overflow=hidden;rotatable=0;points=[[0,0.5],[1,0.5]];portConstraint=eastwest;sketch=1;" parent="iBEAWXsy8XB5qBdqJZX1-37" vertex="1">
          <mxGeometry y="26" width="220" height="24" as="geometry" />
        </mxCell>
        <mxCell id="iBEAWXsy8XB5qBdqJZX1-39" value="OpenCLTensorImpl" style="swimlane;fontStyle=1;childLayout=stackLayout;horizontal=1;startSize=26;fillColor=#f8cecc;horizontalStack=0;resizeParent=1;resizeParentMax=0;resizeLast=0;collapsible=1;marginBottom=0;strokeColor=#b85450;sketch=1;" parent="iBEAWXsy8XB5qBdqJZX1-1" vertex="1">
          <mxGeometry x="1150" y="625" width="220" height="50" as="geometry" />
        </mxCell>
        <mxCell id="iBEAWXsy8XB5qBdqJZX1-40" value="- ..." style="text;strokeColor=none;fillColor=none;align=left;verticalAlign=top;spacingLeft=4;spacingRight=4;overflow=hidden;rotatable=0;points=[[0,0.5],[1,0.5]];portConstraint=eastwest;sketch=1;" parent="iBEAWXsy8XB5qBdqJZX1-39" vertex="1">
          <mxGeometry y="26" width="220" height="24" as="geometry" />
        </mxCell>
        <mxCell id="iBEAWXsy8XB5qBdqJZX1-41" value="MetalTensorImplAllocation" style="swimlane;fontStyle=1;childLayout=stackLayout;horizontal=1;startSize=26;fillColor=#f8cecc;horizontalStack=0;resizeParent=1;resizeParentMax=0;resizeLast=0;collapsible=1;marginBottom=0;strokeColor=#b85450;sketch=1;" parent="iBEAWXsy8XB5qBdqJZX1-1" vertex="1">
          <mxGeometry x="870" y="730" width="220" height="50" as="geometry" />
        </mxCell>
        <mxCell id="iBEAWXsy8XB5qBdqJZX1-42" value="- ..." style="text;strokeColor=none;fillColor=none;align=left;verticalAlign=top;spacingLeft=4;spacingRight=4;overflow=hidden;rotatable=0;points=[[0,0.5],[1,0.5]];portConstraint=eastwest;sketch=1;" parent="iBEAWXsy8XB5qBdqJZX1-41" vertex="1">
          <mxGeometry y="26" width="220" height="24" as="geometry" />
        </mxCell>
        <mxCell id="iBEAWXsy8XB5qBdqJZX1-43" value="OpenCLTensorImplAllocation" style="swimlane;fontStyle=1;childLayout=stackLayout;horizontal=1;startSize=26;fillColor=#f8cecc;horizontalStack=0;resizeParent=1;resizeParentMax=0;resizeLast=0;collapsible=1;marginBottom=0;strokeColor=#b85450;sketch=1;" parent="iBEAWXsy8XB5qBdqJZX1-1" vertex="1">
          <mxGeometry x="1150" y="730" width="220" height="50" as="geometry" />
        </mxCell>
        <mxCell id="iBEAWXsy8XB5qBdqJZX1-44" value="- ..." style="text;strokeColor=none;fillColor=none;align=left;verticalAlign=top;spacingLeft=4;spacingRight=4;overflow=hidden;rotatable=0;points=[[0,0.5],[1,0.5]];portConstraint=eastwest;sketch=1;" parent="iBEAWXsy8XB5qBdqJZX1-43" vertex="1">
          <mxGeometry y="26" width="220" height="24" as="geometry" />
        </mxCell>
        <mxCell id="iBEAWXsy8XB5qBdqJZX1-48" value="" style="endArrow=block;endSize=16;endFill=0;html=1;fontSize=16;entryX=0.5;entryY=1.042;entryDx=0;entryDy=0;entryPerimeter=0;exitX=0.467;exitY=0.021;exitDx=0;exitDy=0;exitPerimeter=0;" parent="iBEAWXsy8XB5qBdqJZX1-1" source="iBEAWXsy8XB5qBdqJZX1-37" edge="1">
          <mxGeometry x="-0.0322" y="-20" width="160" relative="1" as="geometry">
            <mxPoint x="1115" y="624" as="sourcePoint" />
            <mxPoint x="1115" y="530.008" as="targetPoint" />
            <mxPoint as="offset" />
            <Array as="points">
              <mxPoint x="974" y="580" />
              <mxPoint x="1115" y="580" />
            </Array>
          </mxGeometry>
        </mxCell>
        <mxCell id="iBEAWXsy8XB5qBdqJZX1-49" value="" style="endArrow=block;endSize=16;endFill=0;html=1;fontSize=16;exitX=0.5;exitY=0;exitDx=0;exitDy=0;" parent="iBEAWXsy8XB5qBdqJZX1-1" source="iBEAWXsy8XB5qBdqJZX1-39" edge="1">
          <mxGeometry x="-0.0322" y="-20" width="160" relative="1" as="geometry">
            <mxPoint x="1110" y="635" as="sourcePoint" />
            <mxPoint x="1115" y="529" as="targetPoint" />
            <mxPoint as="offset" />
            <Array as="points">
              <mxPoint x="1260" y="580" />
              <mxPoint x="1115" y="580" />
            </Array>
          </mxGeometry>
        </mxCell>
        <mxCell id="iBEAWXsy8XB5qBdqJZX1-50" value="1" style="endArrow=open;html=1;endSize=12;startArrow=diamondThin;startSize=14;startFill=1;edgeStyle=orthogonalEdgeStyle;align=left;verticalAlign=bottom;fontSize=16;entryX=0.5;entryY=0;entryDx=0;entryDy=0;exitX=0.496;exitY=0.995;exitDx=0;exitDy=0;exitPerimeter=0;" parent="iBEAWXsy8XB5qBdqJZX1-1" source="iBEAWXsy8XB5qBdqJZX1-38" target="iBEAWXsy8XB5qBdqJZX1-41" edge="1">
          <mxGeometry y="15" relative="1" as="geometry">
            <mxPoint x="966" y="680" as="sourcePoint" />
            <mxPoint x="701" y="735" as="targetPoint" />
            <mxPoint as="offset" />
          </mxGeometry>
        </mxCell>
        <mxCell id="iBEAWXsy8XB5qBdqJZX1-51" value="1" style="endArrow=open;html=1;endSize=12;startArrow=diamondThin;startSize=14;startFill=1;edgeStyle=orthogonalEdgeStyle;align=left;verticalAlign=bottom;fontSize=16;exitX=0.499;exitY=1.019;exitDx=0;exitDy=0;exitPerimeter=0;" parent="iBEAWXsy8XB5qBdqJZX1-1" source="iBEAWXsy8XB5qBdqJZX1-40" target="iBEAWXsy8XB5qBdqJZX1-43" edge="1">
          <mxGeometry y="15" relative="1" as="geometry">
            <mxPoint x="1360" y="690" as="sourcePoint" />
            <mxPoint x="855" y="735" as="targetPoint" />
            <mxPoint as="offset" />
          </mxGeometry>
        </mxCell>
        <mxCell id="iBEAWXsy8XB5qBdqJZX1-53" value="MKLDNNTensorImpl" style="swimlane;fontStyle=0;childLayout=stackLayout;horizontal=1;startSize=26;fillColor=#d5e8d4;horizontalStack=0;resizeParent=1;resizeParentMax=0;resizeLast=0;collapsible=1;marginBottom=0;strokeColor=#82b366;sketch=1;" parent="iBEAWXsy8XB5qBdqJZX1-1" vertex="1">
          <mxGeometry x="740" y="480" width="180" height="50" as="geometry" />
        </mxCell>
        <mxCell id="iBEAWXsy8XB5qBdqJZX1-54" value="- format_tag format_" style="text;strokeColor=none;fillColor=none;align=left;verticalAlign=top;spacingLeft=4;spacingRight=4;overflow=hidden;rotatable=0;points=[[0,0.5],[1,0.5]];portConstraint=eastwest;sketch=1;" parent="iBEAWXsy8XB5qBdqJZX1-53" vertex="1">
          <mxGeometry y="26" width="180" height="24" as="geometry" />
        </mxCell>
        <mxCell id="iBEAWXsy8XB5qBdqJZX1-56" value="" style="endArrow=block;endSize=16;endFill=0;html=1;fontSize=16;exitX=0.5;exitY=0;exitDx=0;exitDy=0;entryX=1.002;entryY=-0.197;entryDx=0;entryDy=0;entryPerimeter=0;" parent="iBEAWXsy8XB5qBdqJZX1-1" source="iBEAWXsy8XB5qBdqJZX1-53" target="iBEAWXsy8XB5qBdqJZX1-4" edge="1">
          <mxGeometry x="-0.5544" y="-68" width="160" relative="1" as="geometry">
            <mxPoint x="615" y="490" as="sourcePoint" />
            <mxPoint x="680.9999999999998" y="294" as="targetPoint" />
            <Array as="points">
              <mxPoint x="830" y="430" />
              <mxPoint x="810" y="430" />
              <mxPoint x="810" y="285" />
            </Array>
            <mxPoint as="offset" />
          </mxGeometry>
        </mxCell>
      </root>
    </mxGraphModel>
  </diagram>
  <diagram id="fPeEREhieaTNz1J8WeKO" name="design-v1">
    <mxGraphModel dx="2066" dy="1153" grid="1" gridSize="10" guides="1" tooltips="1" connect="1" arrows="1" fold="1" page="1" pageScale="1" pageWidth="827" pageHeight="1169" math="0" shadow="0">
      <root>
        <mxCell id="l_N8zFf3a3DttV2apxN2-0" />
        <mxCell id="l_N8zFf3a3DttV2apxN2-1" parent="l_N8zFf3a3DttV2apxN2-0" />
        <mxCell id="Hp61pD_gglInkdTPDImZ-0" value="BaseTensor" style="swimlane;fontStyle=0;childLayout=stackLayout;horizontal=1;startSize=26;fillColor=#d5e8d4;horizontalStack=0;resizeParent=1;resizeParentMax=0;resizeLast=0;collapsible=1;marginBottom=0;strokeColor=#82b366;sketch=1;" parent="l_N8zFf3a3DttV2apxN2-1" vertex="1">
          <mxGeometry x="610" y="450" width="240" height="76" as="geometry" />
        </mxCell>
        <mxCell id="Hp61pD_gglInkdTPDImZ-1" value="- std::shared_ptr&lt;Allocation&gt; data_" style="text;strokeColor=none;fillColor=none;align=left;verticalAlign=top;spacingLeft=4;spacingRight=4;overflow=hidden;rotatable=0;points=[[0,0.5],[1,0.5]];portConstraint=eastwest;sketch=1;" parent="Hp61pD_gglInkdTPDImZ-0" vertex="1">
          <mxGeometry y="26" width="240" height="24" as="geometry" />
        </mxCell>
        <mxCell id="Hp61pD_gglInkdTPDImZ-3" value="- TensorMeta meta_" style="text;strokeColor=none;fillColor=none;align=left;verticalAlign=top;spacingLeft=4;spacingRight=4;overflow=hidden;rotatable=0;points=[[0,0.5],[1,0.5]];portConstraint=eastwest;sketch=1;" parent="Hp61pD_gglInkdTPDImZ-0" vertex="1">
          <mxGeometry y="50" width="240" height="26" as="geometry" />
        </mxCell>
        <mxCell id="Hp61pD_gglInkdTPDImZ-4" value="Allocation" style="swimlane;fontStyle=0;childLayout=stackLayout;horizontal=1;startSize=26;fillColor=#ffe6cc;horizontalStack=0;resizeParent=1;resizeParentMax=0;resizeLast=0;collapsible=1;marginBottom=0;strokeColor=#d79b00;sketch=1;" parent="l_N8zFf3a3DttV2apxN2-1" vertex="1">
          <mxGeometry x="370" y="436" width="150" height="104" as="geometry" />
        </mxCell>
        <mxCell id="Hp61pD_gglInkdTPDImZ-5" value="- void* ptr_" style="text;strokeColor=none;fillColor=none;align=left;verticalAlign=top;spacingLeft=4;spacingRight=4;overflow=hidden;rotatable=0;points=[[0,0.5],[1,0.5]];portConstraint=eastwest;sketch=1;" parent="Hp61pD_gglInkdTPDImZ-4" vertex="1">
          <mxGeometry y="26" width="150" height="26" as="geometry" />
        </mxCell>
        <mxCell id="Hp61pD_gglInkdTPDImZ-6" value="- size_t size_" style="text;strokeColor=none;fillColor=none;align=left;verticalAlign=top;spacingLeft=4;spacingRight=4;overflow=hidden;rotatable=0;points=[[0,0.5],[1,0.5]];portConstraint=eastwest;sketch=1;" parent="Hp61pD_gglInkdTPDImZ-4" vertex="1">
          <mxGeometry y="52" width="150" height="26" as="geometry" />
        </mxCell>
        <mxCell id="Hp61pD_gglInkdTPDImZ-7" value="- Place place_" style="text;strokeColor=none;fillColor=none;align=left;verticalAlign=top;spacingLeft=4;spacingRight=4;overflow=hidden;rotatable=0;points=[[0,0.5],[1,0.5]];portConstraint=eastwest;sketch=1;" parent="Hp61pD_gglInkdTPDImZ-4" vertex="1">
          <mxGeometry y="78" width="150" height="26" as="geometry" />
        </mxCell>
        <mxCell id="Hp61pD_gglInkdTPDImZ-8" value="1" style="endArrow=open;html=1;endSize=12;startArrow=diamondThin;startSize=14;startFill=1;edgeStyle=orthogonalEdgeStyle;align=left;verticalAlign=bottom;exitX=0;exitY=0.5;exitDx=0;exitDy=0;sketch=1;entryX=1;entryY=-0.038;entryDx=0;entryDy=0;entryPerimeter=0;" parent="l_N8zFf3a3DttV2apxN2-1" source="Hp61pD_gglInkdTPDImZ-1" target="Hp61pD_gglInkdTPDImZ-6" edge="1">
          <mxGeometry x="-0.5603" y="32" relative="1" as="geometry">
            <mxPoint x="735" y="630" as="sourcePoint" />
            <mxPoint x="520" y="610" as="targetPoint" />
            <Array as="points">
              <mxPoint x="530" y="488" />
            </Array>
            <mxPoint as="offset" />
          </mxGeometry>
        </mxCell>
        <mxCell id="Hp61pD_gglInkdTPDImZ-9" value="paddle::Tensor" style="swimlane;fontStyle=0;childLayout=stackLayout;horizontal=1;startSize=26;fillColor=#d5e8d4;horizontalStack=0;resizeParent=1;resizeParentMax=0;resizeLast=0;collapsible=1;marginBottom=0;strokeColor=#82b366;sketch=1;" parent="l_N8zFf3a3DttV2apxN2-1" vertex="1">
          <mxGeometry x="550" y="190" width="360" height="78" as="geometry" />
        </mxCell>
        <mxCell id="Hp61pD_gglInkdTPDImZ-10" value="# std::shared_ptr&lt;TensorImplInterface&gt; impl_" style="text;strokeColor=none;fillColor=none;align=left;verticalAlign=top;spacingLeft=4;spacingRight=4;overflow=hidden;rotatable=0;points=[[0,0.5],[1,0.5]];portConstraint=eastwest;sketch=1;" parent="Hp61pD_gglInkdTPDImZ-9" vertex="1">
          <mxGeometry y="26" width="360" height="26" as="geometry" />
        </mxCell>
        <mxCell id="Hp61pD_gglInkdTPDImZ-38" value="# std::shared_ptr&lt;AutogradMetaInterface&gt; autograd_meta_" style="text;strokeColor=none;fillColor=none;align=left;verticalAlign=top;spacingLeft=4;spacingRight=4;overflow=hidden;rotatable=0;points=[[0,0.5],[1,0.5]];portConstraint=eastwest;sketch=1;" parent="Hp61pD_gglInkdTPDImZ-9" vertex="1">
          <mxGeometry y="52" width="360" height="26" as="geometry" />
        </mxCell>
        <mxCell id="Hp61pD_gglInkdTPDImZ-11" value="1" style="endArrow=open;html=1;endSize=12;startArrow=diamondThin;startSize=14;startFill=1;edgeStyle=orthogonalEdgeStyle;align=left;verticalAlign=bottom;entryX=0.5;entryY=0;entryDx=0;entryDy=0;sketch=1;exitX=0.499;exitY=0.974;exitDx=0;exitDy=0;exitPerimeter=0;" parent="l_N8zFf3a3DttV2apxN2-1" source="Hp61pD_gglInkdTPDImZ-38" target="Hp61pD_gglInkdTPDImZ-40" edge="1">
          <mxGeometry x="-0.2821" y="15" relative="1" as="geometry">
            <mxPoint x="730" y="250" as="sourcePoint" />
            <mxPoint x="755" y="300" as="targetPoint" />
            <mxPoint x="1" as="offset" />
          </mxGeometry>
        </mxCell>
        <mxCell id="Hp61pD_gglInkdTPDImZ-12" value="LoDTensor" style="swimlane;fontStyle=0;childLayout=stackLayout;horizontal=1;startSize=26;fillColor=#d5e8d4;horizontalStack=0;resizeParent=1;resizeParentMax=0;resizeLast=0;collapsible=1;marginBottom=0;strokeColor=#82b366;sketch=1;" parent="l_N8zFf3a3DttV2apxN2-1" vertex="1">
          <mxGeometry x="435" y="620" width="140" height="50" as="geometry" />
        </mxCell>
        <mxCell id="Hp61pD_gglInkdTPDImZ-13" value="- LoD lod_" style="text;strokeColor=none;fillColor=none;align=left;verticalAlign=top;spacingLeft=4;spacingRight=4;overflow=hidden;rotatable=0;points=[[0,0.5],[1,0.5]];portConstraint=eastwest;sketch=1;" parent="Hp61pD_gglInkdTPDImZ-12" vertex="1">
          <mxGeometry y="26" width="140" height="24" as="geometry" />
        </mxCell>
        <mxCell id="Hp61pD_gglInkdTPDImZ-14" value="SelectedRows" style="swimlane;fontStyle=0;childLayout=stackLayout;horizontal=1;startSize=26;fillColor=#d5e8d4;horizontalStack=0;resizeParent=1;resizeParentMax=0;resizeLast=0;collapsible=1;marginBottom=0;strokeColor=#82b366;sketch=1;" parent="l_N8zFf3a3DttV2apxN2-1" vertex="1">
          <mxGeometry x="635" y="620" width="190" height="74" as="geometry" />
        </mxCell>
        <mxCell id="Hp61pD_gglInkdTPDImZ-15" value="- Vector&lt;int64_t&gt; rows_" style="text;strokeColor=none;fillColor=none;align=left;verticalAlign=top;spacingLeft=4;spacingRight=4;overflow=hidden;rotatable=0;points=[[0,0.5],[1,0.5]];portConstraint=eastwest;sketch=1;" parent="Hp61pD_gglInkdTPDImZ-14" vertex="1">
          <mxGeometry y="26" width="190" height="24" as="geometry" />
        </mxCell>
        <mxCell id="Hp61pD_gglInkdTPDImZ-16" value="- int64_t height_" style="text;strokeColor=none;fillColor=none;align=left;verticalAlign=top;spacingLeft=4;spacingRight=4;overflow=hidden;rotatable=0;points=[[0,0.5],[1,0.5]];portConstraint=eastwest;sketch=1;" parent="Hp61pD_gglInkdTPDImZ-14" vertex="1">
          <mxGeometry y="50" width="190" height="24" as="geometry" />
        </mxCell>
        <mxCell id="Hp61pD_gglInkdTPDImZ-19" value="" style="endArrow=block;endSize=16;endFill=0;html=1;fontSize=16;exitX=0.5;exitY=0;exitDx=0;exitDy=0;sketch=1;" parent="l_N8zFf3a3DttV2apxN2-1" source="Hp61pD_gglInkdTPDImZ-12" target="Hp61pD_gglInkdTPDImZ-3" edge="1">
          <mxGeometry x="1" y="-264" width="160" relative="1" as="geometry">
            <mxPoint x="825" y="710" as="sourcePoint" />
            <mxPoint x="730" y="528" as="targetPoint" />
            <Array as="points">
              <mxPoint x="505" y="580" />
              <mxPoint x="730" y="580" />
            </Array>
            <mxPoint x="16" y="-38" as="offset" />
          </mxGeometry>
        </mxCell>
        <mxCell id="Hp61pD_gglInkdTPDImZ-20" value="" style="endArrow=block;endSize=16;endFill=0;html=1;fontSize=16;exitX=0.5;exitY=0;exitDx=0;exitDy=0;sketch=1;entryX=0.499;entryY=0.954;entryDx=0;entryDy=0;entryPerimeter=0;" parent="l_N8zFf3a3DttV2apxN2-1" source="Hp61pD_gglInkdTPDImZ-14" target="Hp61pD_gglInkdTPDImZ-3" edge="1">
          <mxGeometry x="-0.5544" y="-68" width="160" relative="1" as="geometry">
            <mxPoint x="1040" y="710" as="sourcePoint" />
            <mxPoint x="730" y="530" as="targetPoint" />
            <Array as="points">
              <mxPoint x="730" y="570" />
            </Array>
            <mxPoint as="offset" />
          </mxGeometry>
        </mxCell>
        <mxCell id="Hp61pD_gglInkdTPDImZ-22" value="MetalTensor" style="swimlane;fontStyle=1;childLayout=stackLayout;horizontal=1;startSize=26;fillColor=#e1d5e7;horizontalStack=0;resizeParent=1;resizeParentMax=0;resizeLast=0;collapsible=1;marginBottom=0;strokeColor=#9673a6;sketch=1;" parent="l_N8zFf3a3DttV2apxN2-1" vertex="1">
          <mxGeometry x="1080" y="620" width="170" height="50" as="geometry" />
        </mxCell>
        <mxCell id="Hp61pD_gglInkdTPDImZ-23" value="- ..." style="text;strokeColor=none;fillColor=none;align=left;verticalAlign=top;spacingLeft=4;spacingRight=4;overflow=hidden;rotatable=0;points=[[0,0.5],[1,0.5]];portConstraint=eastwest;sketch=1;" parent="Hp61pD_gglInkdTPDImZ-22" vertex="1">
          <mxGeometry y="26" width="170" height="24" as="geometry" />
        </mxCell>
        <mxCell id="Hp61pD_gglInkdTPDImZ-24" value="OpenCLTensor" style="swimlane;fontStyle=1;childLayout=stackLayout;horizontal=1;startSize=26;fillColor=#e1d5e7;horizontalStack=0;resizeParent=1;resizeParentMax=0;resizeLast=0;collapsible=1;marginBottom=0;strokeColor=#9673a6;sketch=1;" parent="l_N8zFf3a3DttV2apxN2-1" vertex="1">
          <mxGeometry x="1280" y="620" width="170" height="50" as="geometry" />
        </mxCell>
        <mxCell id="Hp61pD_gglInkdTPDImZ-25" value="- ..." style="text;strokeColor=none;fillColor=none;align=left;verticalAlign=top;spacingLeft=4;spacingRight=4;overflow=hidden;rotatable=0;points=[[0,0.5],[1,0.5]];portConstraint=eastwest;sketch=1;" parent="Hp61pD_gglInkdTPDImZ-24" vertex="1">
          <mxGeometry y="26" width="170" height="24" as="geometry" />
        </mxCell>
        <mxCell id="Hp61pD_gglInkdTPDImZ-34" value="MKLDNNTensor" style="swimlane;fontStyle=0;childLayout=stackLayout;horizontal=1;startSize=26;fillColor=#d5e8d4;horizontalStack=0;resizeParent=1;resizeParentMax=0;resizeLast=0;collapsible=1;marginBottom=0;strokeColor=#82b366;sketch=1;" parent="l_N8zFf3a3DttV2apxN2-1" vertex="1">
          <mxGeometry x="870" y="620" width="180" height="50" as="geometry" />
        </mxCell>
        <mxCell id="Hp61pD_gglInkdTPDImZ-35" value="- format_tag format_" style="text;strokeColor=none;fillColor=none;align=left;verticalAlign=top;spacingLeft=4;spacingRight=4;overflow=hidden;rotatable=0;points=[[0,0.5],[1,0.5]];portConstraint=eastwest;sketch=1;" parent="Hp61pD_gglInkdTPDImZ-34" vertex="1">
          <mxGeometry y="26" width="180" height="24" as="geometry" />
        </mxCell>
        <mxCell id="Hp61pD_gglInkdTPDImZ-36" value="" style="endArrow=block;endSize=16;endFill=0;html=1;fontSize=16;exitX=0.5;exitY=0;exitDx=0;exitDy=0;sketch=1;entryX=0.499;entryY=0.985;entryDx=0;entryDy=0;entryPerimeter=0;" parent="l_N8zFf3a3DttV2apxN2-1" target="Hp61pD_gglInkdTPDImZ-3" edge="1">
          <mxGeometry x="-0.5544" y="-68" width="160" relative="1" as="geometry">
            <mxPoint x="945" y="616" as="sourcePoint" />
            <mxPoint x="730" y="530" as="targetPoint" />
            <Array as="points">
              <mxPoint x="945" y="580" />
              <mxPoint x="730" y="580" />
            </Array>
            <mxPoint as="offset" />
          </mxGeometry>
        </mxCell>
        <mxCell id="Hp61pD_gglInkdTPDImZ-40" value="«interface»&lt;br&gt;&lt;b&gt;TensorImplInterface&lt;/b&gt;" style="html=1;sketch=1;fontStyle=0;strokeColor=#82b366;fillColor=#d5e8d4;startSize=26;" parent="l_N8zFf3a3DttV2apxN2-1" vertex="1">
          <mxGeometry x="625" y="330" width="210" height="56" as="geometry" />
        </mxCell>
        <mxCell id="Hp61pD_gglInkdTPDImZ-48" value="" style="endArrow=block;endSize=16;endFill=0;html=1;fontSize=16;exitX=0.5;exitY=0;exitDx=0;exitDy=0;sketch=1;entryX=0.5;entryY=1;entryDx=0;entryDy=0;" parent="l_N8zFf3a3DttV2apxN2-1" source="Hp61pD_gglInkdTPDImZ-0" target="Hp61pD_gglInkdTPDImZ-40" edge="1">
          <mxGeometry x="-0.5544" y="-68" width="160" relative="1" as="geometry">
            <mxPoint x="950" y="474.39" as="sourcePoint" />
            <mxPoint x="734.76" y="383.9999999999999" as="targetPoint" />
            <Array as="points" />
            <mxPoint as="offset" />
          </mxGeometry>
        </mxCell>
        <mxCell id="Hp61pD_gglInkdTPDImZ-49" value="ScalarTensor" style="swimlane;fontStyle=1;childLayout=stackLayout;horizontal=1;startSize=26;fillColor=#f8cecc;horizontalStack=0;resizeParent=1;resizeParentMax=0;resizeLast=0;collapsible=1;marginBottom=0;strokeColor=#b85450;sketch=1;" parent="l_N8zFf3a3DttV2apxN2-1" vertex="1">
          <mxGeometry x="895" y="465" width="170" height="50" as="geometry" />
        </mxCell>
        <mxCell id="Hp61pD_gglInkdTPDImZ-50" value="- union value_t v_" style="text;strokeColor=none;fillColor=none;align=left;verticalAlign=top;spacingLeft=4;spacingRight=4;overflow=hidden;rotatable=0;points=[[0,0.5],[1,0.5]];portConstraint=eastwest;sketch=1;" parent="Hp61pD_gglInkdTPDImZ-49" vertex="1">
          <mxGeometry y="26" width="170" height="24" as="geometry" />
        </mxCell>
        <mxCell id="Hp61pD_gglInkdTPDImZ-53" value="" style="endArrow=block;endSize=16;endFill=0;html=1;fontSize=16;exitX=0.5;exitY=0;exitDx=0;exitDy=0;sketch=1;entryX=0.5;entryY=1;entryDx=0;entryDy=0;" parent="l_N8zFf3a3DttV2apxN2-1" source="Hp61pD_gglInkdTPDImZ-49" target="Hp61pD_gglInkdTPDImZ-40" edge="1">
          <mxGeometry x="-0.0322" y="-20" width="160" relative="1" as="geometry">
            <mxPoint x="1330" y="366" as="sourcePoint" />
            <mxPoint x="730" y="390" as="targetPoint" />
            <mxPoint as="offset" />
            <Array as="points">
              <mxPoint x="980" y="420" />
              <mxPoint x="730" y="420" />
            </Array>
          </mxGeometry>
        </mxCell>
        <mxCell id="Hp61pD_gglInkdTPDImZ-56" value="" style="endArrow=block;endSize=16;endFill=0;html=1;fontSize=16;exitX=0.5;exitY=0;exitDx=0;exitDy=0;sketch=1;entryX=0.504;entryY=0.951;entryDx=0;entryDy=0;entryPerimeter=0;" parent="l_N8zFf3a3DttV2apxN2-1" source="Hp61pD_gglInkdTPDImZ-22" target="Hp61pD_gglInkdTPDImZ-3" edge="1">
          <mxGeometry x="-0.0322" y="-20" width="160" relative="1" as="geometry">
            <mxPoint x="990" y="475" as="sourcePoint" />
            <mxPoint x="730" y="530" as="targetPoint" />
            <mxPoint as="offset" />
            <Array as="points">
              <mxPoint x="1165" y="580" />
              <mxPoint x="970" y="580" />
              <mxPoint x="810" y="580" />
              <mxPoint x="730" y="580" />
            </Array>
          </mxGeometry>
        </mxCell>
        <mxCell id="Hp61pD_gglInkdTPDImZ-57" value="" style="endArrow=block;endSize=16;endFill=0;html=1;fontSize=16;exitX=0.5;exitY=0;exitDx=0;exitDy=0;sketch=1;" parent="l_N8zFf3a3DttV2apxN2-1" source="Hp61pD_gglInkdTPDImZ-24" target="Hp61pD_gglInkdTPDImZ-3" edge="1">
          <mxGeometry x="-0.0322" y="-20" width="160" relative="1" as="geometry">
            <mxPoint x="1200" y="475" as="sourcePoint" />
            <mxPoint x="730" y="530" as="targetPoint" />
            <mxPoint as="offset" />
            <Array as="points">
              <mxPoint x="1365" y="580" />
              <mxPoint x="1070" y="580" />
              <mxPoint x="730" y="580" />
            </Array>
          </mxGeometry>
        </mxCell>
        <mxCell id="Hp61pD_gglInkdTPDImZ-60" value="1" style="endArrow=open;html=1;endSize=12;startArrow=diamondThin;startSize=14;startFill=1;edgeStyle=orthogonalEdgeStyle;align=left;verticalAlign=bottom;entryX=0.5;entryY=0;entryDx=0;entryDy=0;sketch=1;exitX=0.5;exitY=1.026;exitDx=0;exitDy=0;exitPerimeter=0;" parent="l_N8zFf3a3DttV2apxN2-1" source="Hp61pD_gglInkdTPDImZ-38" target="Hp61pD_gglInkdTPDImZ-61" edge="1">
          <mxGeometry x="-0.7436" y="10" relative="1" as="geometry">
            <mxPoint x="845" y="290" as="sourcePoint" />
            <mxPoint x="845" y="350" as="targetPoint" />
            <mxPoint as="offset" />
            <Array as="points">
              <mxPoint x="730" y="300" />
              <mxPoint x="1030" y="300" />
            </Array>
          </mxGeometry>
        </mxCell>
        <mxCell id="Hp61pD_gglInkdTPDImZ-61" value="«interface»&lt;br&gt;&lt;b&gt;AutogradMetaInterface&lt;/b&gt;" style="html=1;sketch=1;fontStyle=0;strokeColor=#6c8ebf;fillColor=#dae8fc;startSize=26;" parent="l_N8zFf3a3DttV2apxN2-1" vertex="1">
          <mxGeometry x="925" y="330" width="210" height="56" as="geometry" />
        </mxCell>
        <mxCell id="Hp61pD_gglInkdTPDImZ-62" value="paddle_infer::Tensor" style="swimlane;fontStyle=0;childLayout=stackLayout;horizontal=1;startSize=26;fillColor=#fff2cc;horizontalStack=0;resizeParent=1;resizeParentMax=0;resizeLast=0;collapsible=1;marginBottom=0;strokeColor=#d6b656;sketch=1;" parent="l_N8zFf3a3DttV2apxN2-1" vertex="1">
          <mxGeometry x="260" y="260" width="260" height="52" as="geometry" />
        </mxCell>
        <mxCell id="Hp61pD_gglInkdTPDImZ-63" value="# std::shared_ptr&lt;TensorImplInterface&gt; impl_" style="text;strokeColor=none;fillColor=none;align=left;verticalAlign=top;spacingLeft=4;spacingRight=4;overflow=hidden;rotatable=0;points=[[0,0.5],[1,0.5]];portConstraint=eastwest;sketch=1;" parent="Hp61pD_gglInkdTPDImZ-62" vertex="1">
          <mxGeometry y="26" width="260" height="26" as="geometry" />
        </mxCell>
        <mxCell id="Hp61pD_gglInkdTPDImZ-65" value="1" style="endArrow=open;html=1;endSize=12;startArrow=diamondThin;startSize=14;startFill=1;edgeStyle=orthogonalEdgeStyle;align=left;verticalAlign=bottom;entryX=0;entryY=0.5;entryDx=0;entryDy=0;sketch=1;exitX=0.52;exitY=1.045;exitDx=0;exitDy=0;exitPerimeter=0;" parent="l_N8zFf3a3DttV2apxN2-1" source="Hp61pD_gglInkdTPDImZ-63" target="Hp61pD_gglInkdTPDImZ-40" edge="1">
          <mxGeometry x="-0.7436" y="10" relative="1" as="geometry">
            <mxPoint x="275" y="267.9959999999999" as="sourcePoint" />
            <mxPoint x="575" y="329.32" as="targetPoint" />
            <mxPoint as="offset" />
            <Array as="points">
              <mxPoint x="395" y="358" />
            </Array>
          </mxGeometry>
        </mxCell>
        <mxCell id="Hp61pD_gglInkdTPDImZ-71" value="share data" style="text;html=1;strokeColor=none;fillColor=none;align=center;verticalAlign=middle;whiteSpace=wrap;rounded=0;dashed=1;sketch=1;" parent="l_N8zFf3a3DttV2apxN2-1" vertex="1">
          <mxGeometry x="300" y="471" width="40" height="20" as="geometry" />
        </mxCell>
        <mxCell id="Hp61pD_gglInkdTPDImZ-75" value="" style="endArrow=open;endFill=1;endSize=12;html=1;entryX=0;entryY=0.5;entryDx=0;entryDy=0;exitX=1;exitY=0.5;exitDx=0;exitDy=0;" parent="l_N8zFf3a3DttV2apxN2-1" source="Hp61pD_gglInkdTPDImZ-76" target="Hp61pD_gglInkdTPDImZ-6" edge="1">
          <mxGeometry width="160" relative="1" as="geometry">
            <mxPoint x="260.0000000000002" y="501" as="sourcePoint" />
            <mxPoint x="310" y="750" as="targetPoint" />
          </mxGeometry>
        </mxCell>
        <mxCell id="Hp61pD_gglInkdTPDImZ-76" value="Other System&lt;br&gt;Tensor" style="html=1;dashed=1;sketch=1;strokeWidth=1;fillColor=#f5f5f5;strokeColor=#666666;fontColor=#333333;" parent="l_N8zFf3a3DttV2apxN2-1" vertex="1">
          <mxGeometry x="160" y="476" width="110" height="50" as="geometry" />
        </mxCell>
        <mxCell id="GvqLLEdYQ8SxsFTO0yjM-0" value="MetalTensorAllocation" style="swimlane;fontStyle=1;childLayout=stackLayout;horizontal=1;startSize=26;fillColor=#e1d5e7;horizontalStack=0;resizeParent=1;resizeParentMax=0;resizeLast=0;collapsible=1;marginBottom=0;strokeColor=#9673a6;sketch=1;" parent="l_N8zFf3a3DttV2apxN2-1" vertex="1">
          <mxGeometry x="1082.5" y="725.12" width="165" height="50" as="geometry" />
        </mxCell>
        <mxCell id="GvqLLEdYQ8SxsFTO0yjM-1" value="- ..." style="text;strokeColor=none;fillColor=none;align=left;verticalAlign=top;spacingLeft=4;spacingRight=4;overflow=hidden;rotatable=0;points=[[0,0.5],[1,0.5]];portConstraint=eastwest;sketch=1;" parent="GvqLLEdYQ8SxsFTO0yjM-0" vertex="1">
          <mxGeometry y="26" width="165" height="24" as="geometry" />
        </mxCell>
        <mxCell id="GvqLLEdYQ8SxsFTO0yjM-2" value="OpenCLTensorAllocation" style="swimlane;fontStyle=1;childLayout=stackLayout;horizontal=1;startSize=26;fillColor=#e1d5e7;horizontalStack=0;resizeParent=1;resizeParentMax=0;resizeLast=0;collapsible=1;marginBottom=0;strokeColor=#9673a6;sketch=1;" parent="l_N8zFf3a3DttV2apxN2-1" vertex="1">
          <mxGeometry x="1284" y="725.12" width="170" height="50" as="geometry" />
        </mxCell>
        <mxCell id="GvqLLEdYQ8SxsFTO0yjM-3" value="- ..." style="text;strokeColor=none;fillColor=none;align=left;verticalAlign=top;spacingLeft=4;spacingRight=4;overflow=hidden;rotatable=0;points=[[0,0.5],[1,0.5]];portConstraint=eastwest;sketch=1;" parent="GvqLLEdYQ8SxsFTO0yjM-2" vertex="1">
          <mxGeometry y="26" width="170" height="24" as="geometry" />
        </mxCell>
        <mxCell id="GvqLLEdYQ8SxsFTO0yjM-4" value="1" style="endArrow=open;html=1;endSize=12;startArrow=diamondThin;startSize=14;startFill=1;edgeStyle=orthogonalEdgeStyle;align=left;verticalAlign=bottom;fontSize=16;entryX=0.5;entryY=0;entryDx=0;entryDy=0;exitX=0.496;exitY=0.995;exitDx=0;exitDy=0;exitPerimeter=0;" parent="l_N8zFf3a3DttV2apxN2-1" target="GvqLLEdYQ8SxsFTO0yjM-0" edge="1">
          <mxGeometry y="15" relative="1" as="geometry">
            <mxPoint x="1165.12" y="670.0000000000001" as="sourcePoint" />
            <mxPoint x="886" y="730.12" as="targetPoint" />
            <mxPoint as="offset" />
          </mxGeometry>
        </mxCell>
        <mxCell id="GvqLLEdYQ8SxsFTO0yjM-5" value="1" style="endArrow=open;html=1;endSize=12;startArrow=diamondThin;startSize=14;startFill=1;edgeStyle=orthogonalEdgeStyle;align=left;verticalAlign=bottom;fontSize=16;exitX=0.499;exitY=1.019;exitDx=0;exitDy=0;exitPerimeter=0;" parent="l_N8zFf3a3DttV2apxN2-1" target="GvqLLEdYQ8SxsFTO0yjM-2" edge="1">
          <mxGeometry y="15" relative="1" as="geometry">
            <mxPoint x="1369.7800000000002" y="669.9959999999999" as="sourcePoint" />
            <mxPoint x="965" y="729.54" as="targetPoint" />
            <mxPoint as="offset" />
          </mxGeometry>
        </mxCell>
        <mxCell id="04H4ybKSBBU70pYUge7e-2" value="ShapeTensor" style="swimlane;fontStyle=1;childLayout=stackLayout;horizontal=1;startSize=26;fillColor=#f8cecc;horizontalStack=0;resizeParent=1;resizeParentMax=0;resizeLast=0;collapsible=1;marginBottom=0;strokeColor=#b85450;sketch=1;" parent="l_N8zFf3a3DttV2apxN2-1" vertex="1">
          <mxGeometry x="1110" y="465" width="170" height="50" as="geometry" />
        </mxCell>
        <mxCell id="04H4ybKSBBU70pYUge7e-3" value="-  std::vector&lt;int64_t&gt; shape_" style="text;strokeColor=none;fillColor=none;align=left;verticalAlign=top;spacingLeft=4;spacingRight=4;overflow=hidden;rotatable=0;points=[[0,0.5],[1,0.5]];portConstraint=eastwest;sketch=1;" parent="04H4ybKSBBU70pYUge7e-2" vertex="1">
          <mxGeometry y="26" width="170" height="24" as="geometry" />
        </mxCell>
        <mxCell id="04H4ybKSBBU70pYUge7e-4" value="" style="endArrow=block;endSize=16;endFill=0;html=1;fontSize=16;exitX=0.5;exitY=0;exitDx=0;exitDy=0;sketch=1;entryX=0.5;entryY=1;entryDx=0;entryDy=0;" parent="l_N8zFf3a3DttV2apxN2-1" source="04H4ybKSBBU70pYUge7e-2" target="Hp61pD_gglInkdTPDImZ-40" edge="1">
          <mxGeometry x="-0.0322" y="-20" width="160" relative="1" as="geometry">
            <mxPoint x="990" y="475" as="sourcePoint" />
            <mxPoint x="740" y="396" as="targetPoint" />
            <mxPoint as="offset" />
            <Array as="points">
              <mxPoint x="1195" y="420" />
              <mxPoint x="730" y="420" />
            </Array>
          </mxGeometry>
        </mxCell>
        <mxCell id="DrVV6Wqkr2nS8B-Q6ihK-2" value="ObjectTensor" style="swimlane;fontStyle=1;childLayout=stackLayout;horizontal=1;startSize=26;fillColor=#f8cecc;horizontalStack=0;resizeParent=1;resizeParentMax=0;resizeLast=0;collapsible=1;marginBottom=0;strokeColor=#b85450;sketch=1;" parent="l_N8zFf3a3DttV2apxN2-1" vertex="1">
          <mxGeometry x="1320" y="465" width="170" height="50" as="geometry" />
        </mxCell>
        <mxCell id="DrVV6Wqkr2nS8B-Q6ihK-3" value="- PyObject* obj_" style="text;strokeColor=none;fillColor=none;align=left;verticalAlign=top;spacingLeft=4;spacingRight=4;overflow=hidden;rotatable=0;points=[[0,0.5],[1,0.5]];portConstraint=eastwest;sketch=1;" parent="DrVV6Wqkr2nS8B-Q6ihK-2" vertex="1">
          <mxGeometry y="26" width="170" height="24" as="geometry" />
        </mxCell>
        <mxCell id="fiqMDn59ji4YTz-D-T5N-0" value="" style="endArrow=block;endSize=16;endFill=0;html=1;fontSize=16;exitX=0.5;exitY=0;exitDx=0;exitDy=0;sketch=1;entryX=0.5;entryY=1;entryDx=0;entryDy=0;" parent="l_N8zFf3a3DttV2apxN2-1" source="DrVV6Wqkr2nS8B-Q6ihK-2" target="Hp61pD_gglInkdTPDImZ-40" edge="1">
          <mxGeometry x="-0.0322" y="-20" width="160" relative="1" as="geometry">
            <mxPoint x="1205" y="475" as="sourcePoint" />
            <mxPoint x="730" y="380" as="targetPoint" />
            <mxPoint as="offset" />
            <Array as="points">
              <mxPoint x="1405" y="420" />
              <mxPoint x="730" y="420" />
            </Array>
          </mxGeometry>
        </mxCell>
      </root>
    </mxGraphModel>
  </diagram>
  <diagram id="TMAs4esQYRfhDIGDFRNo" name="design-v2">
    <mxGraphModel dx="2066" dy="1153" grid="1" gridSize="10" guides="1" tooltips="1" connect="1" arrows="1" fold="1" page="1" pageScale="1" pageWidth="827" pageHeight="1169" math="0" shadow="0">
      <root>
        <mxCell id="WbEUKOmZ1mT90uE5hQK2-0" />
        <mxCell id="WbEUKOmZ1mT90uE5hQK2-1" parent="WbEUKOmZ1mT90uE5hQK2-0" />
        <mxCell id="BRfx_CDhqA5A1ypoLhO7-0" value="BaseTensor" style="swimlane;fontStyle=0;childLayout=stackLayout;horizontal=1;startSize=26;fillColor=#d5e8d4;horizontalStack=0;resizeParent=1;resizeParentMax=0;resizeLast=0;collapsible=1;marginBottom=0;strokeColor=#82b366;sketch=1;" parent="WbEUKOmZ1mT90uE5hQK2-1" vertex="1">
          <mxGeometry x="610" y="450" width="240" height="76" as="geometry" />
        </mxCell>
        <mxCell id="BRfx_CDhqA5A1ypoLhO7-1" value="- std::shared_ptr&lt;Allocation&gt; data_" style="text;strokeColor=none;fillColor=none;align=left;verticalAlign=top;spacingLeft=4;spacingRight=4;overflow=hidden;rotatable=0;points=[[0,0.5],[1,0.5]];portConstraint=eastwest;sketch=1;" parent="BRfx_CDhqA5A1ypoLhO7-0" vertex="1">
          <mxGeometry y="26" width="240" height="24" as="geometry" />
        </mxCell>
        <mxCell id="BRfx_CDhqA5A1ypoLhO7-2" value="- TensorMeta meta_" style="text;strokeColor=none;fillColor=none;align=left;verticalAlign=top;spacingLeft=4;spacingRight=4;overflow=hidden;rotatable=0;points=[[0,0.5],[1,0.5]];portConstraint=eastwest;sketch=1;" parent="BRfx_CDhqA5A1ypoLhO7-0" vertex="1">
          <mxGeometry y="50" width="240" height="26" as="geometry" />
        </mxCell>
        <mxCell id="BRfx_CDhqA5A1ypoLhO7-3" value="Allocation" style="swimlane;fontStyle=0;childLayout=stackLayout;horizontal=1;startSize=26;fillColor=#ffe6cc;horizontalStack=0;resizeParent=1;resizeParentMax=0;resizeLast=0;collapsible=1;marginBottom=0;strokeColor=#d79b00;sketch=1;" parent="WbEUKOmZ1mT90uE5hQK2-1" vertex="1">
          <mxGeometry x="370" y="436" width="150" height="104" as="geometry" />
        </mxCell>
        <mxCell id="BRfx_CDhqA5A1ypoLhO7-4" value="- void* ptr_" style="text;strokeColor=none;fillColor=none;align=left;verticalAlign=top;spacingLeft=4;spacingRight=4;overflow=hidden;rotatable=0;points=[[0,0.5],[1,0.5]];portConstraint=eastwest;sketch=1;" parent="BRfx_CDhqA5A1ypoLhO7-3" vertex="1">
          <mxGeometry y="26" width="150" height="26" as="geometry" />
        </mxCell>
        <mxCell id="BRfx_CDhqA5A1ypoLhO7-5" value="- size_t size_" style="text;strokeColor=none;fillColor=none;align=left;verticalAlign=top;spacingLeft=4;spacingRight=4;overflow=hidden;rotatable=0;points=[[0,0.5],[1,0.5]];portConstraint=eastwest;sketch=1;" parent="BRfx_CDhqA5A1ypoLhO7-3" vertex="1">
          <mxGeometry y="52" width="150" height="26" as="geometry" />
        </mxCell>
        <mxCell id="BRfx_CDhqA5A1ypoLhO7-6" value="- Place place_" style="text;strokeColor=none;fillColor=none;align=left;verticalAlign=top;spacingLeft=4;spacingRight=4;overflow=hidden;rotatable=0;points=[[0,0.5],[1,0.5]];portConstraint=eastwest;sketch=1;" parent="BRfx_CDhqA5A1ypoLhO7-3" vertex="1">
          <mxGeometry y="78" width="150" height="26" as="geometry" />
        </mxCell>
        <mxCell id="BRfx_CDhqA5A1ypoLhO7-7" value="1" style="endArrow=open;html=1;endSize=12;startArrow=diamondThin;startSize=14;startFill=1;edgeStyle=orthogonalEdgeStyle;align=left;verticalAlign=bottom;exitX=0;exitY=0.5;exitDx=0;exitDy=0;sketch=1;entryX=1;entryY=-0.038;entryDx=0;entryDy=0;entryPerimeter=0;" parent="WbEUKOmZ1mT90uE5hQK2-1" source="BRfx_CDhqA5A1ypoLhO7-1" target="BRfx_CDhqA5A1ypoLhO7-5" edge="1">
          <mxGeometry x="-0.5603" y="32" relative="1" as="geometry">
            <mxPoint x="735" y="630" as="sourcePoint" />
            <mxPoint x="520" y="610" as="targetPoint" />
            <Array as="points">
              <mxPoint x="530" y="488" />
            </Array>
            <mxPoint as="offset" />
          </mxGeometry>
        </mxCell>
        <mxCell id="BRfx_CDhqA5A1ypoLhO7-8" value="paddle::Tensor" style="swimlane;fontStyle=0;childLayout=stackLayout;horizontal=1;startSize=26;fillColor=#d5e8d4;horizontalStack=0;resizeParent=1;resizeParentMax=0;resizeLast=0;collapsible=1;marginBottom=0;strokeColor=#82b366;sketch=1;" parent="WbEUKOmZ1mT90uE5hQK2-1" vertex="1">
          <mxGeometry x="550" y="190" width="360" height="78" as="geometry" />
        </mxCell>
        <mxCell id="BRfx_CDhqA5A1ypoLhO7-9" value="# std::shared_ptr&lt;TensorImplInterface&gt; impl_" style="text;strokeColor=none;fillColor=none;align=left;verticalAlign=top;spacingLeft=4;spacingRight=4;overflow=hidden;rotatable=0;points=[[0,0.5],[1,0.5]];portConstraint=eastwest;sketch=1;" parent="BRfx_CDhqA5A1ypoLhO7-8" vertex="1">
          <mxGeometry y="26" width="360" height="26" as="geometry" />
        </mxCell>
        <mxCell id="BRfx_CDhqA5A1ypoLhO7-10" value="# std::shared_ptr&lt;AutogradMetaInterface&gt; autograd_meta_" style="text;strokeColor=none;fillColor=none;align=left;verticalAlign=top;spacingLeft=4;spacingRight=4;overflow=hidden;rotatable=0;points=[[0,0.5],[1,0.5]];portConstraint=eastwest;sketch=1;" parent="BRfx_CDhqA5A1ypoLhO7-8" vertex="1">
          <mxGeometry y="52" width="360" height="26" as="geometry" />
        </mxCell>
        <mxCell id="BRfx_CDhqA5A1ypoLhO7-11" value="1" style="endArrow=open;html=1;endSize=12;startArrow=diamondThin;startSize=14;startFill=1;edgeStyle=orthogonalEdgeStyle;align=left;verticalAlign=bottom;entryX=0.5;entryY=0;entryDx=0;entryDy=0;sketch=1;exitX=0.499;exitY=0.974;exitDx=0;exitDy=0;exitPerimeter=0;" parent="WbEUKOmZ1mT90uE5hQK2-1" source="BRfx_CDhqA5A1ypoLhO7-10" target="BRfx_CDhqA5A1ypoLhO7-26" edge="1">
          <mxGeometry x="-0.2821" y="15" relative="1" as="geometry">
            <mxPoint x="730" y="250" as="sourcePoint" />
            <mxPoint x="755" y="300" as="targetPoint" />
            <mxPoint x="1" as="offset" />
          </mxGeometry>
        </mxCell>
        <mxCell id="BRfx_CDhqA5A1ypoLhO7-12" value="LoDTensor" style="swimlane;fontStyle=0;childLayout=stackLayout;horizontal=1;startSize=26;fillColor=#d5e8d4;horizontalStack=0;resizeParent=1;resizeParentMax=0;resizeLast=0;collapsible=1;marginBottom=0;strokeColor=#82b366;sketch=1;" parent="WbEUKOmZ1mT90uE5hQK2-1" vertex="1">
          <mxGeometry x="435" y="620" width="140" height="50" as="geometry" />
        </mxCell>
        <mxCell id="BRfx_CDhqA5A1ypoLhO7-13" value="- LoD lod_" style="text;strokeColor=none;fillColor=none;align=left;verticalAlign=top;spacingLeft=4;spacingRight=4;overflow=hidden;rotatable=0;points=[[0,0.5],[1,0.5]];portConstraint=eastwest;sketch=1;" parent="BRfx_CDhqA5A1ypoLhO7-12" vertex="1">
          <mxGeometry y="26" width="140" height="24" as="geometry" />
        </mxCell>
        <mxCell id="BRfx_CDhqA5A1ypoLhO7-14" value="SelectedRows" style="swimlane;fontStyle=0;childLayout=stackLayout;horizontal=1;startSize=26;fillColor=#d5e8d4;horizontalStack=0;resizeParent=1;resizeParentMax=0;resizeLast=0;collapsible=1;marginBottom=0;strokeColor=#82b366;sketch=1;" parent="WbEUKOmZ1mT90uE5hQK2-1" vertex="1">
          <mxGeometry x="635" y="620" width="190" height="74" as="geometry" />
        </mxCell>
        <mxCell id="BRfx_CDhqA5A1ypoLhO7-15" value="- Vector&lt;int64_t&gt; rows_" style="text;strokeColor=none;fillColor=none;align=left;verticalAlign=top;spacingLeft=4;spacingRight=4;overflow=hidden;rotatable=0;points=[[0,0.5],[1,0.5]];portConstraint=eastwest;sketch=1;" parent="BRfx_CDhqA5A1ypoLhO7-14" vertex="1">
          <mxGeometry y="26" width="190" height="24" as="geometry" />
        </mxCell>
        <mxCell id="BRfx_CDhqA5A1ypoLhO7-16" value="- int64_t height_" style="text;strokeColor=none;fillColor=none;align=left;verticalAlign=top;spacingLeft=4;spacingRight=4;overflow=hidden;rotatable=0;points=[[0,0.5],[1,0.5]];portConstraint=eastwest;sketch=1;" parent="BRfx_CDhqA5A1ypoLhO7-14" vertex="1">
          <mxGeometry y="50" width="190" height="24" as="geometry" />
        </mxCell>
        <mxCell id="BRfx_CDhqA5A1ypoLhO7-17" value="" style="endArrow=block;endSize=16;endFill=0;html=1;fontSize=16;exitX=0.5;exitY=0;exitDx=0;exitDy=0;sketch=1;" parent="WbEUKOmZ1mT90uE5hQK2-1" source="BRfx_CDhqA5A1ypoLhO7-12" target="BRfx_CDhqA5A1ypoLhO7-2" edge="1">
          <mxGeometry x="1" y="-264" width="160" relative="1" as="geometry">
            <mxPoint x="825" y="710" as="sourcePoint" />
            <mxPoint x="730" y="528" as="targetPoint" />
            <Array as="points">
              <mxPoint x="505" y="580" />
              <mxPoint x="730" y="580" />
            </Array>
            <mxPoint x="16" y="-38" as="offset" />
          </mxGeometry>
        </mxCell>
        <mxCell id="BRfx_CDhqA5A1ypoLhO7-18" value="" style="endArrow=block;endSize=16;endFill=0;html=1;fontSize=16;exitX=0.5;exitY=0;exitDx=0;exitDy=0;sketch=1;entryX=0.499;entryY=0.954;entryDx=0;entryDy=0;entryPerimeter=0;" parent="WbEUKOmZ1mT90uE5hQK2-1" source="BRfx_CDhqA5A1ypoLhO7-14" target="BRfx_CDhqA5A1ypoLhO7-2" edge="1">
          <mxGeometry x="-0.5544" y="-68" width="160" relative="1" as="geometry">
            <mxPoint x="1040" y="710" as="sourcePoint" />
            <mxPoint x="730" y="530" as="targetPoint" />
            <Array as="points">
              <mxPoint x="730" y="570" />
            </Array>
            <mxPoint as="offset" />
          </mxGeometry>
        </mxCell>
        <mxCell id="BRfx_CDhqA5A1ypoLhO7-19" value="MetalTensor" style="swimlane;fontStyle=1;childLayout=stackLayout;horizontal=1;startSize=26;fillColor=#e1d5e7;horizontalStack=0;resizeParent=1;resizeParentMax=0;resizeLast=0;collapsible=1;marginBottom=0;strokeColor=#9673a6;sketch=1;" parent="WbEUKOmZ1mT90uE5hQK2-1" vertex="1">
          <mxGeometry x="1080" y="620" width="170" height="50" as="geometry" />
        </mxCell>
        <mxCell id="BRfx_CDhqA5A1ypoLhO7-20" value="- ..." style="text;strokeColor=none;fillColor=none;align=left;verticalAlign=top;spacingLeft=4;spacingRight=4;overflow=hidden;rotatable=0;points=[[0,0.5],[1,0.5]];portConstraint=eastwest;sketch=1;" parent="BRfx_CDhqA5A1ypoLhO7-19" vertex="1">
          <mxGeometry y="26" width="170" height="24" as="geometry" />
        </mxCell>
        <mxCell id="BRfx_CDhqA5A1ypoLhO7-21" value="OpenCLTensor" style="swimlane;fontStyle=1;childLayout=stackLayout;horizontal=1;startSize=26;fillColor=#e1d5e7;horizontalStack=0;resizeParent=1;resizeParentMax=0;resizeLast=0;collapsible=1;marginBottom=0;strokeColor=#9673a6;sketch=1;" parent="WbEUKOmZ1mT90uE5hQK2-1" vertex="1">
          <mxGeometry x="1280" y="620" width="170" height="50" as="geometry" />
        </mxCell>
        <mxCell id="BRfx_CDhqA5A1ypoLhO7-22" value="- ..." style="text;strokeColor=none;fillColor=none;align=left;verticalAlign=top;spacingLeft=4;spacingRight=4;overflow=hidden;rotatable=0;points=[[0,0.5],[1,0.5]];portConstraint=eastwest;sketch=1;" parent="BRfx_CDhqA5A1ypoLhO7-21" vertex="1">
          <mxGeometry y="26" width="170" height="24" as="geometry" />
        </mxCell>
        <mxCell id="BRfx_CDhqA5A1ypoLhO7-23" value="MKLDNNTensor" style="swimlane;fontStyle=0;childLayout=stackLayout;horizontal=1;startSize=26;fillColor=#d5e8d4;horizontalStack=0;resizeParent=1;resizeParentMax=0;resizeLast=0;collapsible=1;marginBottom=0;strokeColor=#82b366;sketch=1;" parent="WbEUKOmZ1mT90uE5hQK2-1" vertex="1">
          <mxGeometry x="870" y="620" width="180" height="50" as="geometry" />
        </mxCell>
        <mxCell id="BRfx_CDhqA5A1ypoLhO7-24" value="- format_tag format_" style="text;strokeColor=none;fillColor=none;align=left;verticalAlign=top;spacingLeft=4;spacingRight=4;overflow=hidden;rotatable=0;points=[[0,0.5],[1,0.5]];portConstraint=eastwest;sketch=1;" parent="BRfx_CDhqA5A1ypoLhO7-23" vertex="1">
          <mxGeometry y="26" width="180" height="24" as="geometry" />
        </mxCell>
        <mxCell id="BRfx_CDhqA5A1ypoLhO7-25" value="" style="endArrow=block;endSize=16;endFill=0;html=1;fontSize=16;exitX=0.5;exitY=0;exitDx=0;exitDy=0;sketch=1;entryX=0.499;entryY=0.985;entryDx=0;entryDy=0;entryPerimeter=0;" parent="WbEUKOmZ1mT90uE5hQK2-1" target="BRfx_CDhqA5A1ypoLhO7-2" edge="1">
          <mxGeometry x="-0.5544" y="-68" width="160" relative="1" as="geometry">
            <mxPoint x="945" y="616" as="sourcePoint" />
            <mxPoint x="730" y="530" as="targetPoint" />
            <Array as="points">
              <mxPoint x="945" y="580" />
              <mxPoint x="730" y="580" />
            </Array>
            <mxPoint as="offset" />
          </mxGeometry>
        </mxCell>
        <mxCell id="BRfx_CDhqA5A1ypoLhO7-26" value="«interface»&lt;br&gt;&lt;b&gt;TensorImplInterface&lt;/b&gt;" style="html=1;sketch=1;fontStyle=0;strokeColor=#82b366;fillColor=#d5e8d4;startSize=26;" parent="WbEUKOmZ1mT90uE5hQK2-1" vertex="1">
          <mxGeometry x="625" y="330" width="210" height="56" as="geometry" />
        </mxCell>
        <mxCell id="BRfx_CDhqA5A1ypoLhO7-27" value="" style="endArrow=block;endSize=16;endFill=0;html=1;fontSize=16;exitX=0.5;exitY=0;exitDx=0;exitDy=0;sketch=1;entryX=0.5;entryY=1;entryDx=0;entryDy=0;" parent="WbEUKOmZ1mT90uE5hQK2-1" source="BRfx_CDhqA5A1ypoLhO7-0" target="BRfx_CDhqA5A1ypoLhO7-26" edge="1">
          <mxGeometry x="-0.5544" y="-68" width="160" relative="1" as="geometry">
            <mxPoint x="950" y="474.39" as="sourcePoint" />
            <mxPoint x="734.76" y="383.9999999999999" as="targetPoint" />
            <Array as="points" />
            <mxPoint as="offset" />
          </mxGeometry>
        </mxCell>
        <mxCell id="BRfx_CDhqA5A1ypoLhO7-31" value="" style="endArrow=block;endSize=16;endFill=0;html=1;fontSize=16;exitX=0.5;exitY=0;exitDx=0;exitDy=0;sketch=1;entryX=0.504;entryY=0.951;entryDx=0;entryDy=0;entryPerimeter=0;" parent="WbEUKOmZ1mT90uE5hQK2-1" source="BRfx_CDhqA5A1ypoLhO7-19" target="BRfx_CDhqA5A1ypoLhO7-2" edge="1">
          <mxGeometry x="-0.0322" y="-20" width="160" relative="1" as="geometry">
            <mxPoint x="990" y="475" as="sourcePoint" />
            <mxPoint x="730" y="530" as="targetPoint" />
            <mxPoint as="offset" />
            <Array as="points">
              <mxPoint x="1165" y="580" />
              <mxPoint x="970" y="580" />
              <mxPoint x="810" y="580" />
              <mxPoint x="730" y="580" />
            </Array>
          </mxGeometry>
        </mxCell>
        <mxCell id="BRfx_CDhqA5A1ypoLhO7-32" value="" style="endArrow=block;endSize=16;endFill=0;html=1;fontSize=16;exitX=0.5;exitY=0;exitDx=0;exitDy=0;sketch=1;" parent="WbEUKOmZ1mT90uE5hQK2-1" source="BRfx_CDhqA5A1ypoLhO7-21" target="BRfx_CDhqA5A1ypoLhO7-2" edge="1">
          <mxGeometry x="-0.0322" y="-20" width="160" relative="1" as="geometry">
            <mxPoint x="1200" y="475" as="sourcePoint" />
            <mxPoint x="730" y="530" as="targetPoint" />
            <mxPoint as="offset" />
            <Array as="points">
              <mxPoint x="1365" y="580" />
              <mxPoint x="1070" y="580" />
              <mxPoint x="730" y="580" />
            </Array>
          </mxGeometry>
        </mxCell>
        <mxCell id="BRfx_CDhqA5A1ypoLhO7-33" value="1" style="endArrow=open;html=1;endSize=12;startArrow=diamondThin;startSize=14;startFill=1;edgeStyle=orthogonalEdgeStyle;align=left;verticalAlign=bottom;entryX=0.5;entryY=0;entryDx=0;entryDy=0;sketch=1;exitX=0.5;exitY=1.026;exitDx=0;exitDy=0;exitPerimeter=0;" parent="WbEUKOmZ1mT90uE5hQK2-1" source="BRfx_CDhqA5A1ypoLhO7-10" target="BRfx_CDhqA5A1ypoLhO7-34" edge="1">
          <mxGeometry x="-0.7436" y="10" relative="1" as="geometry">
            <mxPoint x="845" y="290" as="sourcePoint" />
            <mxPoint x="845" y="350" as="targetPoint" />
            <mxPoint as="offset" />
            <Array as="points">
              <mxPoint x="730" y="300" />
              <mxPoint x="1030" y="300" />
            </Array>
          </mxGeometry>
        </mxCell>
        <mxCell id="BRfx_CDhqA5A1ypoLhO7-34" value="«interface»&lt;br&gt;&lt;b&gt;AutogradMetaInterface&lt;/b&gt;" style="html=1;sketch=1;fontStyle=0;strokeColor=#6c8ebf;fillColor=#dae8fc;startSize=26;" parent="WbEUKOmZ1mT90uE5hQK2-1" vertex="1">
          <mxGeometry x="925" y="330" width="210" height="56" as="geometry" />
        </mxCell>
        <mxCell id="BRfx_CDhqA5A1ypoLhO7-38" value="share data" style="text;html=1;strokeColor=none;fillColor=none;align=center;verticalAlign=middle;whiteSpace=wrap;rounded=0;dashed=1;sketch=1;" parent="WbEUKOmZ1mT90uE5hQK2-1" vertex="1">
          <mxGeometry x="300" y="471" width="40" height="20" as="geometry" />
        </mxCell>
        <mxCell id="BRfx_CDhqA5A1ypoLhO7-39" value="" style="endArrow=open;endFill=1;endSize=12;html=1;entryX=0;entryY=0.5;entryDx=0;entryDy=0;exitX=1;exitY=0.5;exitDx=0;exitDy=0;" parent="WbEUKOmZ1mT90uE5hQK2-1" source="BRfx_CDhqA5A1ypoLhO7-40" target="BRfx_CDhqA5A1ypoLhO7-5" edge="1">
          <mxGeometry width="160" relative="1" as="geometry">
            <mxPoint x="260.0000000000002" y="501" as="sourcePoint" />
            <mxPoint x="310" y="750" as="targetPoint" />
          </mxGeometry>
        </mxCell>
        <mxCell id="BRfx_CDhqA5A1ypoLhO7-40" value="Other System&lt;br&gt;Tensor" style="html=1;dashed=1;sketch=1;strokeWidth=1;fillColor=#f5f5f5;strokeColor=#666666;fontColor=#333333;" parent="WbEUKOmZ1mT90uE5hQK2-1" vertex="1">
          <mxGeometry x="160" y="476" width="110" height="50" as="geometry" />
        </mxCell>
        <mxCell id="BRfx_CDhqA5A1ypoLhO7-41" value="MetalTensorAllocation" style="swimlane;fontStyle=1;childLayout=stackLayout;horizontal=1;startSize=26;fillColor=#e1d5e7;horizontalStack=0;resizeParent=1;resizeParentMax=0;resizeLast=0;collapsible=1;marginBottom=0;strokeColor=#9673a6;sketch=1;" parent="WbEUKOmZ1mT90uE5hQK2-1" vertex="1">
          <mxGeometry x="1082.5" y="725.12" width="165" height="50" as="geometry" />
        </mxCell>
        <mxCell id="BRfx_CDhqA5A1ypoLhO7-42" value="- ..." style="text;strokeColor=none;fillColor=none;align=left;verticalAlign=top;spacingLeft=4;spacingRight=4;overflow=hidden;rotatable=0;points=[[0,0.5],[1,0.5]];portConstraint=eastwest;sketch=1;" parent="BRfx_CDhqA5A1ypoLhO7-41" vertex="1">
          <mxGeometry y="26" width="165" height="24" as="geometry" />
        </mxCell>
        <mxCell id="BRfx_CDhqA5A1ypoLhO7-43" value="OpenCLTensorAllocation" style="swimlane;fontStyle=1;childLayout=stackLayout;horizontal=1;startSize=26;fillColor=#e1d5e7;horizontalStack=0;resizeParent=1;resizeParentMax=0;resizeLast=0;collapsible=1;marginBottom=0;strokeColor=#9673a6;sketch=1;" parent="WbEUKOmZ1mT90uE5hQK2-1" vertex="1">
          <mxGeometry x="1284" y="725.12" width="170" height="50" as="geometry" />
        </mxCell>
        <mxCell id="BRfx_CDhqA5A1ypoLhO7-44" value="- ..." style="text;strokeColor=none;fillColor=none;align=left;verticalAlign=top;spacingLeft=4;spacingRight=4;overflow=hidden;rotatable=0;points=[[0,0.5],[1,0.5]];portConstraint=eastwest;sketch=1;" parent="BRfx_CDhqA5A1ypoLhO7-43" vertex="1">
          <mxGeometry y="26" width="170" height="24" as="geometry" />
        </mxCell>
        <mxCell id="BRfx_CDhqA5A1ypoLhO7-45" value="1" style="endArrow=open;html=1;endSize=12;startArrow=diamondThin;startSize=14;startFill=1;edgeStyle=orthogonalEdgeStyle;align=left;verticalAlign=bottom;fontSize=16;entryX=0.5;entryY=0;entryDx=0;entryDy=0;exitX=0.496;exitY=0.995;exitDx=0;exitDy=0;exitPerimeter=0;" parent="WbEUKOmZ1mT90uE5hQK2-1" target="BRfx_CDhqA5A1ypoLhO7-41" edge="1">
          <mxGeometry y="15" relative="1" as="geometry">
            <mxPoint x="1165.12" y="670" as="sourcePoint" />
            <mxPoint x="886" y="730.12" as="targetPoint" />
            <mxPoint as="offset" />
          </mxGeometry>
        </mxCell>
        <mxCell id="BRfx_CDhqA5A1ypoLhO7-46" value="1" style="endArrow=open;html=1;endSize=12;startArrow=diamondThin;startSize=14;startFill=1;edgeStyle=orthogonalEdgeStyle;align=left;verticalAlign=bottom;fontSize=16;exitX=0.499;exitY=1.019;exitDx=0;exitDy=0;exitPerimeter=0;" parent="WbEUKOmZ1mT90uE5hQK2-1" target="BRfx_CDhqA5A1ypoLhO7-43" edge="1">
          <mxGeometry y="15" relative="1" as="geometry">
            <mxPoint x="1369.7800000000002" y="669.9959999999999" as="sourcePoint" />
            <mxPoint x="965" y="729.54" as="targetPoint" />
            <mxPoint as="offset" />
          </mxGeometry>
        </mxCell>
        <mxCell id="BRfx_CDhqA5A1ypoLhO7-50" value="ObjectTensor" style="swimlane;fontStyle=1;childLayout=stackLayout;horizontal=1;startSize=26;fillColor=#f8cecc;horizontalStack=0;resizeParent=1;resizeParentMax=0;resizeLast=0;collapsible=1;marginBottom=0;strokeColor=#b85450;sketch=1;" parent="WbEUKOmZ1mT90uE5hQK2-1" vertex="1">
          <mxGeometry x="900" y="465" width="170" height="50" as="geometry" />
        </mxCell>
        <mxCell id="BRfx_CDhqA5A1ypoLhO7-51" value="- PyObject* obj_" style="text;strokeColor=none;fillColor=none;align=left;verticalAlign=top;spacingLeft=4;spacingRight=4;overflow=hidden;rotatable=0;points=[[0,0.5],[1,0.5]];portConstraint=eastwest;sketch=1;" parent="BRfx_CDhqA5A1ypoLhO7-50" vertex="1">
          <mxGeometry y="26" width="170" height="24" as="geometry" />
        </mxCell>
        <mxCell id="BRfx_CDhqA5A1ypoLhO7-52" value="" style="endArrow=block;endSize=16;endFill=0;html=1;fontSize=16;exitX=0.5;exitY=0;exitDx=0;exitDy=0;sketch=1;entryX=0.5;entryY=1;entryDx=0;entryDy=0;" parent="WbEUKOmZ1mT90uE5hQK2-1" source="BRfx_CDhqA5A1ypoLhO7-50" target="BRfx_CDhqA5A1ypoLhO7-26" edge="1">
          <mxGeometry x="-0.0322" y="-20" width="160" relative="1" as="geometry">
            <mxPoint x="1205" y="475" as="sourcePoint" />
            <mxPoint x="730" y="380" as="targetPoint" />
            <mxPoint as="offset" />
            <Array as="points">
              <mxPoint x="985" y="420" />
              <mxPoint x="730" y="420" />
            </Array>
          </mxGeometry>
        </mxCell>
        <mxCell id="BRfx_CDhqA5A1ypoLhO7-53" value="以防万一，如果某种Tensor的概念显著区别于传统概念，但又必须统一API" style="text;html=1;strokeColor=none;fillColor=none;align=center;verticalAlign=middle;whiteSpace=wrap;rounded=0;" parent="WbEUKOmZ1mT90uE5hQK2-1" vertex="1">
          <mxGeometry x="1000" y="430" width="230" height="20" as="geometry" />
        </mxCell>
      </root>
    </mxGraphModel>
  </diagram>
  <diagram id="91tyqETHyCGsau2UWP6T" name="design-v3">
    <mxGraphModel dx="1722" dy="961" grid="1" gridSize="10" guides="1" tooltips="1" connect="1" arrows="1" fold="1" page="1" pageScale="1" pageWidth="827" pageHeight="1169" math="0" shadow="0">
      <root>
        <mxCell id="wZulakJZBy3D4Ly5kJ1o-0" />
        <mxCell id="wZulakJZBy3D4Ly5kJ1o-1" parent="wZulakJZBy3D4Ly5kJ1o-0" />
        <mxCell id="0d6bVzQWWg7MbXUk0Itc-0" value="DenseTensor" style="swimlane;fontStyle=0;childLayout=stackLayout;horizontal=1;startSize=26;fillColor=#d5e8d4;horizontalStack=0;resizeParent=1;resizeParentMax=0;resizeLast=0;collapsible=1;marginBottom=0;strokeColor=#82b366;sketch=1;" vertex="1" parent="wZulakJZBy3D4Ly5kJ1o-1">
          <mxGeometry x="610" y="470" width="240" height="102" as="geometry" />
        </mxCell>
        <mxCell id="0d6bVzQWWg7MbXUk0Itc-1" value="- data_: std::shared_ptr&lt;Allocation&gt; " style="text;strokeColor=none;fillColor=none;align=left;verticalAlign=top;spacingLeft=4;spacingRight=4;overflow=hidden;rotatable=0;points=[[0,0.5],[1,0.5]];portConstraint=eastwest;sketch=1;" vertex="1" parent="0d6bVzQWWg7MbXUk0Itc-0">
          <mxGeometry y="26" width="240" height="24" as="geometry" />
        </mxCell>
        <mxCell id="0d6bVzQWWg7MbXUk0Itc-2" value="- meta_: std::unique_ptr&lt;TensorMeta&gt;" style="text;strokeColor=none;fillColor=none;align=left;verticalAlign=top;spacingLeft=4;spacingRight=4;overflow=hidden;rotatable=0;points=[[0,0.5],[1,0.5]];portConstraint=eastwest;sketch=1;" vertex="1" parent="0d6bVzQWWg7MbXUk0Itc-0">
          <mxGeometry y="50" width="240" height="26" as="geometry" />
        </mxCell>
        <mxCell id="0d6bVzQWWg7MbXUk0Itc-59" value="- status_: std::unique_ptr&lt;TensorStatus&gt; " style="text;strokeColor=none;fillColor=none;align=left;verticalAlign=top;spacingLeft=4;spacingRight=4;overflow=hidden;rotatable=0;points=[[0,0.5],[1,0.5]];portConstraint=eastwest;sketch=1;" vertex="1" parent="0d6bVzQWWg7MbXUk0Itc-0">
          <mxGeometry y="76" width="240" height="26" as="geometry" />
        </mxCell>
        <mxCell id="0d6bVzQWWg7MbXUk0Itc-3" value="Allocation" style="swimlane;fontStyle=0;childLayout=stackLayout;horizontal=1;startSize=26;fillColor=#d5e8d4;horizontalStack=0;resizeParent=1;resizeParentMax=0;resizeLast=0;collapsible=1;marginBottom=0;strokeColor=#82b366;sketch=1;" vertex="1" parent="wZulakJZBy3D4Ly5kJ1o-1">
          <mxGeometry x="460" y="640" width="150" height="104" as="geometry" />
        </mxCell>
        <mxCell id="0d6bVzQWWg7MbXUk0Itc-4" value="- ptr_: void*" style="text;strokeColor=none;fillColor=none;align=left;verticalAlign=top;spacingLeft=4;spacingRight=4;overflow=hidden;rotatable=0;points=[[0,0.5],[1,0.5]];portConstraint=eastwest;sketch=1;" vertex="1" parent="0d6bVzQWWg7MbXUk0Itc-3">
          <mxGeometry y="26" width="150" height="26" as="geometry" />
        </mxCell>
        <mxCell id="0d6bVzQWWg7MbXUk0Itc-5" value="- size_: size_t" style="text;strokeColor=none;fillColor=none;align=left;verticalAlign=top;spacingLeft=4;spacingRight=4;overflow=hidden;rotatable=0;points=[[0,0.5],[1,0.5]];portConstraint=eastwest;sketch=1;" vertex="1" parent="0d6bVzQWWg7MbXUk0Itc-3">
          <mxGeometry y="52" width="150" height="26" as="geometry" />
        </mxCell>
        <mxCell id="0d6bVzQWWg7MbXUk0Itc-6" value="- place_: Place" style="text;strokeColor=none;fillColor=none;align=left;verticalAlign=top;spacingLeft=4;spacingRight=4;overflow=hidden;rotatable=0;points=[[0,0.5],[1,0.5]];portConstraint=eastwest;sketch=1;" vertex="1" parent="0d6bVzQWWg7MbXUk0Itc-3">
          <mxGeometry y="78" width="150" height="26" as="geometry" />
        </mxCell>
        <mxCell id="0d6bVzQWWg7MbXUk0Itc-7" value="1" style="endArrow=open;html=1;endSize=12;startArrow=diamondThin;startSize=14;startFill=1;edgeStyle=orthogonalEdgeStyle;align=left;verticalAlign=bottom;exitX=0.478;exitY=0.943;exitDx=0;exitDy=0;sketch=1;exitPerimeter=0;entryX=0.5;entryY=0;entryDx=0;entryDy=0;" edge="1" parent="wZulakJZBy3D4Ly5kJ1o-1" source="0d6bVzQWWg7MbXUk0Itc-59" target="0d6bVzQWWg7MbXUk0Itc-3">
          <mxGeometry x="-0.6212" y="-20" relative="1" as="geometry">
            <mxPoint x="600" y="901" as="sourcePoint" />
            <mxPoint x="530" y="691" as="targetPoint" />
            <Array as="points">
              <mxPoint x="725" y="610" />
              <mxPoint x="535" y="610" />
            </Array>
            <mxPoint as="offset" />
          </mxGeometry>
        </mxCell>
        <mxCell id="0d6bVzQWWg7MbXUk0Itc-8" value="paddle::Tensor" style="swimlane;fontStyle=0;childLayout=stackLayout;horizontal=1;startSize=26;fillColor=#d5e8d4;horizontalStack=0;resizeParent=1;resizeParentMax=0;resizeLast=0;collapsible=1;marginBottom=0;strokeColor=#82b366;sketch=1;" vertex="1" parent="wZulakJZBy3D4Ly5kJ1o-1">
          <mxGeometry x="550" y="190" width="360" height="78" as="geometry" />
        </mxCell>
        <mxCell id="0d6bVzQWWg7MbXUk0Itc-9" value="# impl_: std::shared_ptr&lt;TensorImplInterface&gt; " style="text;strokeColor=none;fillColor=none;align=left;verticalAlign=top;spacingLeft=4;spacingRight=4;overflow=hidden;rotatable=0;points=[[0,0.5],[1,0.5]];portConstraint=eastwest;sketch=1;" vertex="1" parent="0d6bVzQWWg7MbXUk0Itc-8">
          <mxGeometry y="26" width="360" height="26" as="geometry" />
        </mxCell>
        <mxCell id="0d6bVzQWWg7MbXUk0Itc-10" value="#autograd_meta_: std::shared_ptr&lt;AutogradMetaInterface&gt; " style="text;strokeColor=none;fillColor=none;align=left;verticalAlign=top;spacingLeft=4;spacingRight=4;overflow=hidden;rotatable=0;points=[[0,0.5],[1,0.5]];portConstraint=eastwest;sketch=1;" vertex="1" parent="0d6bVzQWWg7MbXUk0Itc-8">
          <mxGeometry y="52" width="360" height="26" as="geometry" />
        </mxCell>
        <mxCell id="0d6bVzQWWg7MbXUk0Itc-11" value="1" style="endArrow=open;html=1;endSize=12;startArrow=diamondThin;startSize=14;startFill=1;edgeStyle=orthogonalEdgeStyle;align=left;verticalAlign=bottom;entryX=0.5;entryY=0;entryDx=0;entryDy=0;exitX=0.499;exitY=0.974;exitDx=0;exitDy=0;exitPerimeter=0;sketch=1;" edge="1" parent="wZulakJZBy3D4Ly5kJ1o-1" source="0d6bVzQWWg7MbXUk0Itc-10" target="0d6bVzQWWg7MbXUk0Itc-26">
          <mxGeometry x="-0.2821" y="15" relative="1" as="geometry">
            <mxPoint x="730" y="250" as="sourcePoint" />
            <mxPoint x="755" y="300" as="targetPoint" />
            <mxPoint x="1" as="offset" />
          </mxGeometry>
        </mxCell>
        <mxCell id="0d6bVzQWWg7MbXUk0Itc-14" value="SelectedRowsTensor" style="swimlane;fontStyle=0;childLayout=stackLayout;horizontal=1;startSize=26;fillColor=#d5e8d4;horizontalStack=0;resizeParent=1;resizeParentMax=0;resizeLast=0;collapsible=1;marginBottom=0;strokeColor=#82b366;sketch=1;" vertex="1" parent="wZulakJZBy3D4Ly5kJ1o-1">
          <mxGeometry x="360" y="470" width="190" height="100" as="geometry" />
        </mxCell>
        <mxCell id="T-TFaasM0qDin42Y7Kvh-0" value="- value_: DenseTensor" style="text;strokeColor=none;fillColor=none;align=left;verticalAlign=top;spacingLeft=4;spacingRight=4;overflow=hidden;rotatable=0;points=[[0,0.5],[1,0.5]];portConstraint=eastwest;sketch=1;" vertex="1" parent="0d6bVzQWWg7MbXUk0Itc-14">
          <mxGeometry y="26" width="190" height="26" as="geometry" />
        </mxCell>
        <mxCell id="0d6bVzQWWg7MbXUk0Itc-15" value="- rows_: Vector&lt;int64_t&gt;" style="text;strokeColor=none;fillColor=none;align=left;verticalAlign=top;spacingLeft=4;spacingRight=4;overflow=hidden;rotatable=0;points=[[0,0.5],[1,0.5]];portConstraint=eastwest;sketch=1;" vertex="1" parent="0d6bVzQWWg7MbXUk0Itc-14">
          <mxGeometry y="52" width="190" height="24" as="geometry" />
        </mxCell>
        <mxCell id="0d6bVzQWWg7MbXUk0Itc-16" value="- height_: int64_t" style="text;strokeColor=none;fillColor=none;align=left;verticalAlign=top;spacingLeft=4;spacingRight=4;overflow=hidden;rotatable=0;points=[[0,0.5],[1,0.5]];portConstraint=eastwest;sketch=1;" vertex="1" parent="0d6bVzQWWg7MbXUk0Itc-14">
          <mxGeometry y="76" width="190" height="24" as="geometry" />
        </mxCell>
        <mxCell id="0d6bVzQWWg7MbXUk0Itc-18" value="" style="endArrow=block;endSize=16;endFill=0;html=1;fontSize=16;exitX=0.5;exitY=0;exitDx=0;exitDy=0;sketch=1;entryX=0.5;entryY=1;entryDx=0;entryDy=0;" edge="1" parent="wZulakJZBy3D4Ly5kJ1o-1" source="0d6bVzQWWg7MbXUk0Itc-14" target="0d6bVzQWWg7MbXUk0Itc-26">
          <mxGeometry x="-0.5544" y="-68" width="160" relative="1" as="geometry">
            <mxPoint x="1640" y="974.27" as="sourcePoint" />
            <mxPoint x="1085" y="553" as="targetPoint" />
            <Array as="points">
              <mxPoint x="455" y="440" />
              <mxPoint x="730" y="440" />
            </Array>
            <mxPoint as="offset" />
          </mxGeometry>
        </mxCell>
        <mxCell id="0d6bVzQWWg7MbXUk0Itc-26" value="«interface»&lt;br&gt;&lt;b&gt;TensorImplInterface&lt;/b&gt;" style="html=1;fontStyle=0;strokeColor=#82b366;fillColor=#d5e8d4;startSize=26;sketch=1;" vertex="1" parent="wZulakJZBy3D4Ly5kJ1o-1">
          <mxGeometry x="625" y="330" width="210" height="56" as="geometry" />
        </mxCell>
        <mxCell id="0d6bVzQWWg7MbXUk0Itc-27" value="" style="endArrow=block;endSize=16;endFill=0;html=1;fontSize=16;exitX=0.5;exitY=0;exitDx=0;exitDy=0;entryX=0.5;entryY=1;entryDx=0;entryDy=0;sketch=1;" edge="1" parent="wZulakJZBy3D4Ly5kJ1o-1" source="0d6bVzQWWg7MbXUk0Itc-0">
          <mxGeometry x="-0.5544" y="-68" width="160" relative="1" as="geometry">
            <mxPoint x="950" y="474.39" as="sourcePoint" />
            <mxPoint x="730" y="386" as="targetPoint" />
            <Array as="points" />
            <mxPoint as="offset" />
          </mxGeometry>
        </mxCell>
        <mxCell id="0d6bVzQWWg7MbXUk0Itc-33" value="1" style="endArrow=open;html=1;endSize=12;startArrow=diamondThin;startSize=14;startFill=1;edgeStyle=orthogonalEdgeStyle;align=left;verticalAlign=bottom;entryX=0.5;entryY=0;entryDx=0;entryDy=0;exitX=0.5;exitY=1.026;exitDx=0;exitDy=0;exitPerimeter=0;sketch=1;" edge="1" parent="wZulakJZBy3D4Ly5kJ1o-1" source="0d6bVzQWWg7MbXUk0Itc-10" target="0d6bVzQWWg7MbXUk0Itc-34">
          <mxGeometry x="-0.7436" y="10" relative="1" as="geometry">
            <mxPoint x="845" y="290" as="sourcePoint" />
            <mxPoint x="845" y="350" as="targetPoint" />
            <mxPoint as="offset" />
            <Array as="points">
              <mxPoint x="730" y="300" />
              <mxPoint x="395" y="300" />
            </Array>
          </mxGeometry>
        </mxCell>
        <mxCell id="0d6bVzQWWg7MbXUk0Itc-34" value="«interface»&lt;br&gt;&lt;b&gt;AutogradMetaInterface&lt;/b&gt;" style="html=1;fontStyle=0;strokeColor=#6c8ebf;fillColor=#dae8fc;startSize=26;sketch=1;" vertex="1" parent="wZulakJZBy3D4Ly5kJ1o-1">
          <mxGeometry x="290" y="330" width="210" height="56" as="geometry" />
        </mxCell>
        <mxCell id="0d6bVzQWWg7MbXUk0Itc-35" value="paddle_infer::Tensor" style="swimlane;fontStyle=0;childLayout=stackLayout;horizontal=1;startSize=26;fillColor=#dae8fc;horizontalStack=0;resizeParent=1;resizeParentMax=0;resizeLast=0;collapsible=1;marginBottom=0;strokeColor=#6c8ebf;sketch=1;" vertex="1" parent="wZulakJZBy3D4Ly5kJ1o-1">
          <mxGeometry x="980" y="210" width="310" height="52" as="geometry" />
        </mxCell>
        <mxCell id="0d6bVzQWWg7MbXUk0Itc-36" value="#impl_: std::shared_ptr&lt;TensorImplInterface&gt; " style="text;strokeColor=none;fillColor=none;align=left;verticalAlign=top;spacingLeft=4;spacingRight=4;overflow=hidden;rotatable=0;points=[[0,0.5],[1,0.5]];portConstraint=eastwest;sketch=1;" vertex="1" parent="0d6bVzQWWg7MbXUk0Itc-35">
          <mxGeometry y="26" width="310" height="26" as="geometry" />
        </mxCell>
        <mxCell id="0d6bVzQWWg7MbXUk0Itc-37" value="1" style="endArrow=open;html=1;endSize=12;startArrow=diamondThin;startSize=14;startFill=1;edgeStyle=orthogonalEdgeStyle;align=left;verticalAlign=bottom;entryX=1;entryY=0.5;entryDx=0;entryDy=0;exitX=0.52;exitY=1.045;exitDx=0;exitDy=0;exitPerimeter=0;sketch=1;" edge="1" parent="wZulakJZBy3D4Ly5kJ1o-1" source="0d6bVzQWWg7MbXUk0Itc-36" target="0d6bVzQWWg7MbXUk0Itc-26">
          <mxGeometry x="-0.7436" y="10" relative="1" as="geometry">
            <mxPoint x="1315" y="332.9959999999999" as="sourcePoint" />
            <mxPoint x="1665" y="423" as="targetPoint" />
            <mxPoint as="offset" />
            <Array as="points">
              <mxPoint x="1141" y="358" />
            </Array>
          </mxGeometry>
        </mxCell>
        <mxCell id="0d6bVzQWWg7MbXUk0Itc-62" value="TensorMeta" style="swimlane;fontStyle=0;childLayout=stackLayout;horizontal=1;startSize=26;fillColor=#ffe6cc;horizontalStack=0;resizeParent=1;resizeParentMax=0;resizeLast=0;collapsible=1;marginBottom=0;strokeColor=#d79b00;sketch=1;" vertex="1" parent="wZulakJZBy3D4Ly5kJ1o-1">
          <mxGeometry x="648" y="640" width="150" height="180" as="geometry" />
        </mxCell>
        <mxCell id="0d6bVzQWWg7MbXUk0Itc-76" value="+ lod: LoD" style="text;strokeColor=none;fillColor=none;align=left;verticalAlign=top;spacingLeft=4;spacingRight=4;overflow=hidden;rotatable=0;points=[[0,0.5],[1,0.5]];portConstraint=eastwest;sketch=1;" vertex="1" parent="0d6bVzQWWg7MbXUk0Itc-62">
          <mxGeometry y="26" width="150" height="26" as="geometry" />
        </mxCell>
        <mxCell id="0d6bVzQWWg7MbXUk0Itc-63" value="+ dims: DDim" style="text;strokeColor=none;fillColor=none;align=left;verticalAlign=top;spacingLeft=4;spacingRight=4;overflow=hidden;rotatable=0;points=[[0,0.5],[1,0.5]];portConstraint=eastwest;sketch=1;" vertex="1" parent="0d6bVzQWWg7MbXUk0Itc-62">
          <mxGeometry y="52" width="150" height="24" as="geometry" />
        </mxCell>
        <mxCell id="0d6bVzQWWg7MbXUk0Itc-64" value="+ backend: Backend" style="text;strokeColor=none;fillColor=none;align=left;verticalAlign=top;spacingLeft=4;spacingRight=4;overflow=hidden;rotatable=0;points=[[0,0.5],[1,0.5]];portConstraint=eastwest;sketch=1;" vertex="1" parent="0d6bVzQWWg7MbXUk0Itc-62">
          <mxGeometry y="76" width="150" height="26" as="geometry" />
        </mxCell>
        <mxCell id="0d6bVzQWWg7MbXUk0Itc-65" value="+ type: DataType&#xa;" style="text;strokeColor=none;fillColor=none;align=left;verticalAlign=top;spacingLeft=4;spacingRight=4;overflow=hidden;rotatable=0;points=[[0,0.5],[1,0.5]];portConstraint=eastwest;sketch=1;" vertex="1" parent="0d6bVzQWWg7MbXUk0Itc-62">
          <mxGeometry y="102" width="150" height="26" as="geometry" />
        </mxCell>
        <mxCell id="0d6bVzQWWg7MbXUk0Itc-66" value="+ layout: DataLayout" style="text;strokeColor=none;fillColor=none;align=left;verticalAlign=top;spacingLeft=4;spacingRight=4;overflow=hidden;rotatable=0;points=[[0,0.5],[1,0.5]];portConstraint=eastwest;sketch=1;" vertex="1" parent="0d6bVzQWWg7MbXUk0Itc-62">
          <mxGeometry y="128" width="150" height="26" as="geometry" />
        </mxCell>
        <mxCell id="0d6bVzQWWg7MbXUk0Itc-67" value="+ offset: size_t" style="text;strokeColor=none;fillColor=none;align=left;verticalAlign=top;spacingLeft=4;spacingRight=4;overflow=hidden;rotatable=0;points=[[0,0.5],[1,0.5]];portConstraint=eastwest;sketch=1;" vertex="1" parent="0d6bVzQWWg7MbXUk0Itc-62">
          <mxGeometry y="154" width="150" height="26" as="geometry" />
        </mxCell>
        <mxCell id="0d6bVzQWWg7MbXUk0Itc-68" value="TensorStatus" style="swimlane;fontStyle=0;childLayout=stackLayout;horizontal=1;startSize=26;fillColor=#ffe6cc;horizontalStack=0;resizeParent=1;resizeParentMax=0;resizeLast=0;collapsible=1;marginBottom=0;strokeColor=#d79b00;sketch=1;" vertex="1" parent="wZulakJZBy3D4Ly5kJ1o-1">
          <mxGeometry x="835" y="640" width="150" height="52" as="geometry" />
        </mxCell>
        <mxCell id="0d6bVzQWWg7MbXUk0Itc-69" value="+ version: InplaceVersion" style="text;strokeColor=none;fillColor=none;align=left;verticalAlign=top;spacingLeft=4;spacingRight=4;overflow=hidden;rotatable=0;points=[[0,0.5],[1,0.5]];portConstraint=eastwest;sketch=1;" vertex="1" parent="0d6bVzQWWg7MbXUk0Itc-68">
          <mxGeometry y="26" width="150" height="26" as="geometry" />
        </mxCell>
        <mxCell id="0d6bVzQWWg7MbXUk0Itc-74" value="1" style="endArrow=open;html=1;endSize=12;startArrow=diamondThin;startSize=14;startFill=1;edgeStyle=orthogonalEdgeStyle;align=left;verticalAlign=bottom;entryX=0.5;entryY=0;entryDx=0;entryDy=0;sketch=1;exitX=0.475;exitY=1.023;exitDx=0;exitDy=0;exitPerimeter=0;" edge="1" parent="wZulakJZBy3D4Ly5kJ1o-1" source="0d6bVzQWWg7MbXUk0Itc-59" target="0d6bVzQWWg7MbXUk0Itc-62">
          <mxGeometry x="-0.4903" y="-24" relative="1" as="geometry">
            <mxPoint x="910" y="840" as="sourcePoint" />
            <mxPoint x="480" y="911.012" as="targetPoint" />
            <Array as="points">
              <mxPoint x="724" y="610" />
              <mxPoint x="723" y="610" />
            </Array>
            <mxPoint as="offset" />
          </mxGeometry>
        </mxCell>
        <mxCell id="0d6bVzQWWg7MbXUk0Itc-75" value="1" style="endArrow=open;html=1;endSize=12;startArrow=diamondThin;startSize=14;startFill=1;edgeStyle=orthogonalEdgeStyle;align=left;verticalAlign=bottom;entryX=0.5;entryY=0;entryDx=0;entryDy=0;sketch=1;" edge="1" parent="wZulakJZBy3D4Ly5kJ1o-1" target="0d6bVzQWWg7MbXUk0Itc-68">
          <mxGeometry x="-0.8421" y="-25" relative="1" as="geometry">
            <mxPoint x="725" y="572" as="sourcePoint" />
            <mxPoint x="470" y="1092.0000000000002" as="targetPoint" />
            <Array as="points">
              <mxPoint x="725" y="600" />
              <mxPoint x="910" y="600" />
            </Array>
            <mxPoint as="offset" />
          </mxGeometry>
        </mxCell>
        <mxCell id="0d6bVzQWWg7MbXUk0Itc-77" value="MKLDNNTensorMeta" style="swimlane;fontStyle=0;childLayout=stackLayout;horizontal=1;startSize=26;fillColor=#e1d5e7;horizontalStack=0;resizeParent=1;resizeParentMax=0;resizeLast=0;collapsible=1;marginBottom=0;strokeColor=#9673a6;sketch=1;" vertex="1" parent="wZulakJZBy3D4Ly5kJ1o-1">
          <mxGeometry x="638" y="860" width="170" height="52" as="geometry" />
        </mxCell>
        <mxCell id="0d6bVzQWWg7MbXUk0Itc-78" value="+ format: mkldnn::format_tag" style="text;strokeColor=none;fillColor=none;align=left;verticalAlign=top;spacingLeft=4;spacingRight=4;overflow=hidden;rotatable=0;points=[[0,0.5],[1,0.5]];portConstraint=eastwest;sketch=1;" vertex="1" parent="0d6bVzQWWg7MbXUk0Itc-77">
          <mxGeometry y="26" width="170" height="26" as="geometry" />
        </mxCell>
        <mxCell id="0d6bVzQWWg7MbXUk0Itc-84" value="" style="endArrow=block;endSize=16;endFill=0;html=1;fontSize=16;entryX=0.488;entryY=1.06;entryDx=0;entryDy=0;sketch=1;entryPerimeter=0;" edge="1" parent="wZulakJZBy3D4Ly5kJ1o-1" source="0d6bVzQWWg7MbXUk0Itc-77" target="0d6bVzQWWg7MbXUk0Itc-67">
          <mxGeometry x="-0.5544" y="-68" width="160" relative="1" as="geometry">
            <mxPoint x="975" y="1295.27" as="sourcePoint" />
            <mxPoint x="974.7600000000002" y="1200.074" as="targetPoint" />
            <Array as="points" />
            <mxPoint as="offset" />
          </mxGeometry>
        </mxCell>
        <mxCell id="I_ZNShAEx3zc1teG9rKH-0" value="SparseTensor" style="swimlane;fontStyle=0;childLayout=stackLayout;horizontal=1;startSize=26;fillColor=#e1d5e7;horizontalStack=0;resizeParent=1;resizeParentMax=0;resizeLast=0;collapsible=1;marginBottom=0;strokeColor=#9673a6;sketch=1;" vertex="1" parent="wZulakJZBy3D4Ly5kJ1o-1">
          <mxGeometry x="120" y="470" width="190" height="74" as="geometry" />
        </mxCell>
        <mxCell id="I_ZNShAEx3zc1teG9rKH-1" value="- indices_: DenseTensor" style="text;strokeColor=none;fillColor=none;align=left;verticalAlign=top;spacingLeft=4;spacingRight=4;overflow=hidden;rotatable=0;points=[[0,0.5],[1,0.5]];portConstraint=eastwest;sketch=1;" vertex="1" parent="I_ZNShAEx3zc1teG9rKH-0">
          <mxGeometry y="26" width="190" height="24" as="geometry" />
        </mxCell>
        <mxCell id="I_ZNShAEx3zc1teG9rKH-2" value="- value_: DenseTensor" style="text;strokeColor=none;fillColor=none;align=left;verticalAlign=top;spacingLeft=4;spacingRight=4;overflow=hidden;rotatable=0;points=[[0,0.5],[1,0.5]];portConstraint=eastwest;sketch=1;" vertex="1" parent="I_ZNShAEx3zc1teG9rKH-0">
          <mxGeometry y="50" width="190" height="24" as="geometry" />
        </mxCell>
        <mxCell id="T-TFaasM0qDin42Y7Kvh-1" value="" style="endArrow=block;endSize=16;endFill=0;html=1;fontSize=16;exitX=0.5;exitY=0;exitDx=0;exitDy=0;sketch=1;entryX=0.5;entryY=1;entryDx=0;entryDy=0;" edge="1" parent="wZulakJZBy3D4Ly5kJ1o-1" source="I_ZNShAEx3zc1teG9rKH-0" target="0d6bVzQWWg7MbXUk0Itc-26">
          <mxGeometry x="-0.5544" y="-68" width="160" relative="1" as="geometry">
            <mxPoint x="465" y="480" as="sourcePoint" />
            <mxPoint x="730" y="390" as="targetPoint" />
            <Array as="points">
              <mxPoint x="215" y="440" />
              <mxPoint x="730" y="440" />
            </Array>
            <mxPoint as="offset" />
          </mxGeometry>
        </mxCell>
        <mxCell id="8MM1GTeruzwGJGiXB8z6-0" value="SpatialTensor&lt;AllocationType&gt;" style="swimlane;fontStyle=1;childLayout=stackLayout;horizontal=1;startSize=26;fillColor=#f8cecc;horizontalStack=0;resizeParent=1;resizeParentMax=0;resizeLast=0;collapsible=1;marginBottom=0;strokeColor=#b85450;sketch=1;" vertex="1" parent="wZulakJZBy3D4Ly5kJ1o-1">
          <mxGeometry x="1050" y="640" width="290" height="50" as="geometry" />
        </mxCell>
        <mxCell id="8MM1GTeruzwGJGiXB8z6-1" value="- data_: std::shared_ptr&lt;AllocationType&gt;" style="text;strokeColor=none;fillColor=none;align=left;verticalAlign=top;spacingLeft=4;spacingRight=4;overflow=hidden;rotatable=0;points=[[0,0.5],[1,0.5]];portConstraint=eastwest;sketch=1;" vertex="1" parent="8MM1GTeruzwGJGiXB8z6-0">
          <mxGeometry y="26" width="290" height="24" as="geometry" />
        </mxCell>
        <mxCell id="8MM1GTeruzwGJGiXB8z6-2" value="" style="endArrow=block;endSize=16;endFill=0;html=1;fontSize=16;exitX=0.5;exitY=0;exitDx=0;exitDy=0;sketch=1;entryX=1.009;entryY=0.25;entryDx=0;entryDy=0;entryPerimeter=0;" edge="1" parent="wZulakJZBy3D4Ly5kJ1o-1" source="8MM1GTeruzwGJGiXB8z6-0" target="0d6bVzQWWg7MbXUk0Itc-2">
          <mxGeometry x="-0.0322" y="-20" width="160" relative="1" as="geometry">
            <mxPoint x="1725" y="514" as="sourcePoint" />
            <mxPoint x="1090" y="420" as="targetPoint" />
            <mxPoint as="offset" />
            <Array as="points">
              <mxPoint x="1195" y="580" />
              <mxPoint x="1195" y="527" />
            </Array>
          </mxGeometry>
        </mxCell>
        <mxCell id="5DGqlWdO2HvKrf5Y3Oo4-0" value="MetalTensor" style="swimlane;fontStyle=1;childLayout=stackLayout;horizontal=1;startSize=26;fillColor=#f8cecc;horizontalStack=0;resizeParent=1;resizeParentMax=0;resizeLast=0;collapsible=1;marginBottom=0;strokeColor=#b85450;sketch=1;" vertex="1" parent="wZulakJZBy3D4Ly5kJ1o-1">
          <mxGeometry x="981" y="770" width="189" height="50" as="geometry" />
        </mxCell>
        <mxCell id="5DGqlWdO2HvKrf5Y3Oo4-1" value="- ..." style="text;strokeColor=none;fillColor=none;align=left;verticalAlign=top;spacingLeft=4;spacingRight=4;overflow=hidden;rotatable=0;points=[[0,0.5],[1,0.5]];portConstraint=eastwest;sketch=1;" vertex="1" parent="5DGqlWdO2HvKrf5Y3Oo4-0">
          <mxGeometry y="26" width="189" height="24" as="geometry" />
        </mxCell>
        <mxCell id="5DGqlWdO2HvKrf5Y3Oo4-2" value="OpenCLTensor" style="swimlane;fontStyle=1;childLayout=stackLayout;horizontal=1;startSize=26;fillColor=#f8cecc;horizontalStack=0;resizeParent=1;resizeParentMax=0;resizeLast=0;collapsible=1;marginBottom=0;strokeColor=#b85450;sketch=1;" vertex="1" parent="wZulakJZBy3D4Ly5kJ1o-1">
          <mxGeometry x="1230" y="770" width="180" height="50" as="geometry" />
        </mxCell>
        <mxCell id="5DGqlWdO2HvKrf5Y3Oo4-3" value="- ..." style="text;strokeColor=none;fillColor=none;align=left;verticalAlign=top;spacingLeft=4;spacingRight=4;overflow=hidden;rotatable=0;points=[[0,0.5],[1,0.5]];portConstraint=eastwest;sketch=1;" vertex="1" parent="5DGqlWdO2HvKrf5Y3Oo4-2">
          <mxGeometry y="26" width="180" height="24" as="geometry" />
        </mxCell>
        <mxCell id="5DGqlWdO2HvKrf5Y3Oo4-4" value="MetalAllocation" style="swimlane;fontStyle=1;childLayout=stackLayout;horizontal=1;startSize=26;fillColor=#f8cecc;horizontalStack=0;resizeParent=1;resizeParentMax=0;resizeLast=0;collapsible=1;marginBottom=0;strokeColor=#b85450;sketch=1;" vertex="1" parent="wZulakJZBy3D4Ly5kJ1o-1">
          <mxGeometry x="980" y="870" width="190" height="50" as="geometry" />
        </mxCell>
        <mxCell id="5DGqlWdO2HvKrf5Y3Oo4-5" value="- ..." style="text;strokeColor=none;fillColor=none;align=left;verticalAlign=top;spacingLeft=4;spacingRight=4;overflow=hidden;rotatable=0;points=[[0,0.5],[1,0.5]];portConstraint=eastwest;sketch=1;" vertex="1" parent="5DGqlWdO2HvKrf5Y3Oo4-4">
          <mxGeometry y="26" width="190" height="24" as="geometry" />
        </mxCell>
        <mxCell id="5DGqlWdO2HvKrf5Y3Oo4-6" value="OpenCLAllocation" style="swimlane;fontStyle=1;childLayout=stackLayout;horizontal=1;startSize=26;fillColor=#f8cecc;horizontalStack=0;resizeParent=1;resizeParentMax=0;resizeLast=0;collapsible=1;marginBottom=0;strokeColor=#b85450;sketch=1;" vertex="1" parent="wZulakJZBy3D4Ly5kJ1o-1">
          <mxGeometry x="1230" y="870" width="180" height="50" as="geometry" />
        </mxCell>
        <mxCell id="5DGqlWdO2HvKrf5Y3Oo4-7" value="- ..." style="text;strokeColor=none;fillColor=none;align=left;verticalAlign=top;spacingLeft=4;spacingRight=4;overflow=hidden;rotatable=0;points=[[0,0.5],[1,0.5]];portConstraint=eastwest;sketch=1;" vertex="1" parent="5DGqlWdO2HvKrf5Y3Oo4-6">
          <mxGeometry y="26" width="180" height="24" as="geometry" />
        </mxCell>
        <mxCell id="5DGqlWdO2HvKrf5Y3Oo4-8" value="" style="endArrow=block;endSize=16;endFill=0;html=1;fontSize=16;entryX=0.5;entryY=1.042;entryDx=0;entryDy=0;entryPerimeter=0;exitX=0.467;exitY=0.021;exitDx=0;exitDy=0;exitPerimeter=0;" edge="1" parent="wZulakJZBy3D4Ly5kJ1o-1" source="5DGqlWdO2HvKrf5Y3Oo4-0">
          <mxGeometry x="-0.0322" y="-20" width="160" relative="1" as="geometry">
            <mxPoint x="1195" y="785" as="sourcePoint" />
            <mxPoint x="1195" y="691.008" as="targetPoint" />
            <mxPoint as="offset" />
            <Array as="points">
              <mxPoint x="1069" y="730" />
              <mxPoint x="1130" y="730" />
              <mxPoint x="1195" y="730" />
            </Array>
          </mxGeometry>
        </mxCell>
        <mxCell id="5DGqlWdO2HvKrf5Y3Oo4-9" value="" style="endArrow=block;endSize=16;endFill=0;html=1;fontSize=16;exitX=0.5;exitY=0;exitDx=0;exitDy=0;" edge="1" parent="wZulakJZBy3D4Ly5kJ1o-1" source="5DGqlWdO2HvKrf5Y3Oo4-2">
          <mxGeometry x="-0.0322" y="-20" width="160" relative="1" as="geometry">
            <mxPoint x="1190" y="796" as="sourcePoint" />
            <mxPoint x="1195" y="690" as="targetPoint" />
            <mxPoint as="offset" />
            <Array as="points">
              <mxPoint x="1320" y="730" />
              <mxPoint x="1195" y="730" />
            </Array>
          </mxGeometry>
        </mxCell>
        <mxCell id="5DGqlWdO2HvKrf5Y3Oo4-10" value="1" style="endArrow=open;html=1;endSize=12;startArrow=diamondThin;startSize=14;startFill=1;edgeStyle=orthogonalEdgeStyle;align=left;verticalAlign=bottom;fontSize=16;entryX=0.5;entryY=0;entryDx=0;entryDy=0;exitX=0.496;exitY=0.995;exitDx=0;exitDy=0;exitPerimeter=0;" edge="1" parent="wZulakJZBy3D4Ly5kJ1o-1" source="5DGqlWdO2HvKrf5Y3Oo4-1" target="5DGqlWdO2HvKrf5Y3Oo4-4">
          <mxGeometry y="15" relative="1" as="geometry">
            <mxPoint x="1076" y="825" as="sourcePoint" />
            <mxPoint x="811" y="880" as="targetPoint" />
            <mxPoint as="offset" />
          </mxGeometry>
        </mxCell>
        <mxCell id="5DGqlWdO2HvKrf5Y3Oo4-11" value="1" style="endArrow=open;html=1;endSize=12;startArrow=diamondThin;startSize=14;startFill=1;edgeStyle=orthogonalEdgeStyle;align=left;verticalAlign=bottom;fontSize=16;exitX=0.499;exitY=1.019;exitDx=0;exitDy=0;exitPerimeter=0;" edge="1" parent="wZulakJZBy3D4Ly5kJ1o-1" source="5DGqlWdO2HvKrf5Y3Oo4-3" target="5DGqlWdO2HvKrf5Y3Oo4-6">
          <mxGeometry y="15" relative="1" as="geometry">
            <mxPoint x="1440" y="835" as="sourcePoint" />
            <mxPoint x="935" y="880" as="targetPoint" />
            <mxPoint as="offset" />
          </mxGeometry>
        </mxCell>
      </root>
    </mxGraphModel>
  </diagram>
</mxfile>
